<svg id="圖層_1" data-name="圖層 1" xmlns="http://www.w3.org/2000/svg" viewBox="0 0 374.82 385.29"><defs><style>.cls-1,.cls-6{fill:none;}.cls-2{fill:#fed914;}.cls-3{fill:#e45175;}.cls-4{fill:#fff;}.cls-5{fill:#29228c;}.cls-6{stroke:#29228c;stroke-linecap:round;stroke-linejoin:round;stroke-width:10px;}.cls-7{fill:#d5ddff;}</style></defs><title>20190226 Landing Page(Cut)</title><path class="cls-1" d="M366.76,354a5.71,5.71,0,0,1,1.52-3.88V333.78a9.56,9.56,0,0,0-9.57-9.57l-6-.68c4.68,0,8.48-4.14,8.48-9.25s-3.8-9.25-8.48-9.25h-9.81a20.38,20.38,0,0,0,12.33-35.45,14.91,14.91,0,0,0-3.76-29.28c-12.44.13-12.49,15.62-25,15.62h-.05l-15.89-.3a5.72,5.72,0,1,1-6.65-.12l-27.1-.5a5.73,5.73,0,1,1-4.52-.08l-53.35-1c-6.39-4.21-8.57-13.64-18.36-13.64-12.28,0-12.58,14.88-24.29,15.6a5.72,5.72,0,1,1-5.9-1c-7.87-3.45-9.52-14.63-20.16-14.63-12.59,0-12.59,15.63-25.19,15.63s-12.59-15.63-25.17-15.63H98.37a16.32,16.32,0,0,0-9.79,29.39A20.39,20.39,0,0,0,101,305h-7c-4.68,0-8.48,4.14-8.48,9.25s3.8,9.25,8.48,9.25l-13.12.68a9.28,9.28,0,0,0-1.06.06,5.72,5.72,0,0,1-5.51,4.21,6.15,6.15,0,0,1-1.29-.15,9.53,9.53,0,0,0-1.71,5.45v15.37a5.79,5.79,0,0,1,3-.85,5.73,5.73,0,1,1-2.92,10.64c0,.3,0,.6.07.89a28.35,28.35,0,0,0,28.21,25.46h1.62a5.72,5.72,0,0,1,11.44,0h21.26a5.72,5.72,0,1,1,11.44,0h21.26a5.72,5.72,0,1,1,11.44,0h21.26a5.72,5.72,0,1,1,11.44,0H236a5.73,5.73,0,0,1,11.45,0h21.25a5.73,5.73,0,0,1,11.45,0h21.25a5.73,5.73,0,0,1,11.45,0h21.25a5.72,5.72,0,0,1,11.42-.54,28.36,28.36,0,0,0,22.79-26.87A5.7,5.7,0,0,1,366.76,354Zm-259.69,5.73a5.73,5.73,0,1,1,5.72-5.73A5.73,5.73,0,0,1,107.07,359.75Zm0-31.27a5.73,5.73,0,1,1,5.72-5.73A5.73,5.73,0,0,1,107.07,328.48Zm0-31.27a5.73,5.73,0,1,1,5.72-5.73A5.73,5.73,0,0,1,107.07,297.21Zm0-31.27a5.73,5.73,0,1,1,5.72-5.73A5.73,5.73,0,0,1,107.07,265.94Zm32.7,93.81a5.73,5.73,0,1,1,5.72-5.73A5.73,5.73,0,0,1,139.77,359.75Zm0-31.27a5.73,5.73,0,1,1,5.72-5.73A5.73,5.73,0,0,1,139.77,328.48Zm0-31.27a5.73,5.73,0,1,1,5.72-5.73A5.73,5.73,0,0,1,139.77,297.21Zm0-31.27a5.73,5.73,0,1,1,5.72-5.73A5.73,5.73,0,0,1,139.77,265.94Zm32.7,93.81a5.73,5.73,0,1,1,5.72-5.73A5.73,5.73,0,0,1,172.47,359.75Zm0-31.27a5.73,5.73,0,1,1,5.72-5.73A5.73,5.73,0,0,1,172.47,328.48Zm0-31.27a5.73,5.73,0,1,1,5.72-5.73A5.73,5.73,0,0,1,172.47,297.21Zm32.7,62.54a5.73,5.73,0,1,1,5.72-5.73A5.73,5.73,0,0,1,205.17,359.75Zm0-31.27a5.73,5.73,0,1,1,5.72-5.73A5.73,5.73,0,0,1,205.17,328.48Zm0-31.27a5.73,5.73,0,1,1,5.72-5.73A5.73,5.73,0,0,1,205.17,297.21Zm0-31.27a5.73,5.73,0,1,1,5.72-5.73A5.73,5.73,0,0,1,205.17,265.94Zm36.51,93.81A5.73,5.73,0,1,1,247.4,354,5.74,5.74,0,0,1,241.68,359.75Zm0-31.27a5.73,5.73,0,1,1,5.72-5.73A5.74,5.74,0,0,1,241.68,328.48Zm0-31.27a5.73,5.73,0,1,1,5.72-5.73A5.74,5.74,0,0,1,241.68,297.21Zm0-31.27a5.73,5.73,0,1,1,5.72-5.73A5.74,5.74,0,0,1,241.68,265.94Zm32.7,93.81A5.73,5.73,0,1,1,280.1,354,5.74,5.74,0,0,1,274.38,359.75Zm0-31.27a5.73,5.73,0,1,1,5.72-5.73A5.74,5.74,0,0,1,274.38,328.48Zm0-31.27a5.73,5.73,0,1,1,5.72-5.73A5.74,5.74,0,0,1,274.38,297.21Zm32.7,62.54A5.73,5.73,0,1,1,312.8,354,5.74,5.74,0,0,1,307.08,359.75Zm0-31.27a5.73,5.73,0,1,1,5.72-5.73A5.74,5.74,0,0,1,307.08,328.48Zm0-31.27a5.73,5.73,0,1,1,5.72-5.73A5.74,5.74,0,0,1,307.08,297.21Zm32.7-42.72a5.73,5.73,0,1,1-5.73,5.72A5.72,5.72,0,0,1,339.78,254.49Zm0,31.27a5.73,5.73,0,1,1-5.73,5.72A5.72,5.72,0,0,1,339.78,285.76Zm0,74A5.73,5.73,0,1,1,345.5,354,5.74,5.74,0,0,1,339.78,359.75Zm0-31.27a5.73,5.73,0,1,1,5.72-5.73A5.74,5.74,0,0,1,339.78,328.48Z"/><path class="cls-2" d="M107.07,254.49a5.73,5.73,0,1,0,5.72,5.72A5.72,5.72,0,0,0,107.07,254.49Z"/><path class="cls-2" d="M139.77,254.49a5.73,5.73,0,1,0,5.72,5.72A5.72,5.72,0,0,0,139.77,254.49Z"/><path class="cls-2" d="M166.75,260.21a5.72,5.72,0,1,0,9.46-4.32c-.29,0-.58,0-.89,0a12.22,12.22,0,0,1-5-1A5.71,5.71,0,0,0,166.75,260.21Z"/><path class="cls-2" d="M205.17,254.49a5.73,5.73,0,1,0,5.72,5.72A5.72,5.72,0,0,0,205.17,254.49Z"/><path class="cls-2" d="M107.07,285.76a5.73,5.73,0,1,0,5.72,5.72A5.72,5.72,0,0,0,107.07,285.76Z"/><path class="cls-2" d="M139.77,285.76a5.73,5.73,0,1,0,5.72,5.72A5.72,5.72,0,0,0,139.77,285.76Z"/><path class="cls-2" d="M172.47,285.76a5.73,5.73,0,1,0,5.72,5.72A5.72,5.72,0,0,0,172.47,285.76Z"/><path class="cls-2" d="M205.17,285.76a5.73,5.73,0,1,0,5.72,5.72A5.72,5.72,0,0,0,205.17,285.76Z"/><path class="cls-2" d="M79.88,324.27a9.55,9.55,0,0,0-6.8,4.06,6.15,6.15,0,0,0,1.29.15A5.72,5.72,0,0,0,79.88,324.27Z"/><circle class="cls-2" cx="107.07" cy="322.75" r="5.72"/><path class="cls-2" d="M139.77,317a5.73,5.73,0,1,0,5.72,5.72A5.72,5.72,0,0,0,139.77,317Z"/><path class="cls-2" d="M172.47,317a5.73,5.73,0,1,0,5.72,5.72A5.72,5.72,0,0,0,172.47,317Z"/><path class="cls-2" d="M205.17,317a5.73,5.73,0,1,0,5.72,5.72A5.72,5.72,0,0,0,205.17,317Z"/><path class="cls-2" d="M80.09,354a5.72,5.72,0,0,0-5.72-5.72,5.79,5.79,0,0,0-3,.85v5.7c0,.3,0,.6.06.9s-.06.79-.06,1.19c0,.05,0,.1,0,.14s0,.06,0,.09c0,.59,0,1.18.08,1.77a5.66,5.66,0,0,0,2.92.81A5.73,5.73,0,0,0,80.09,354Z"/><path class="cls-2" d="M107.07,348.3a5.73,5.73,0,1,0,5.72,5.72A5.72,5.72,0,0,0,107.07,348.3Z"/><path class="cls-2" d="M139.77,348.3a5.73,5.73,0,1,0,5.72,5.72A5.72,5.72,0,0,0,139.77,348.3Z"/><path class="cls-2" d="M172.47,348.3a5.73,5.73,0,1,0,5.72,5.72A5.72,5.72,0,0,0,172.47,348.3Z"/><path class="cls-2" d="M205.17,348.3a5.73,5.73,0,1,0,5.72,5.72A5.72,5.72,0,0,0,205.17,348.3Z"/><path class="cls-2" d="M107.07,379.57a5.72,5.72,0,0,0-5.72,5.72h11.44A5.72,5.72,0,0,0,107.07,379.57Z"/><path class="cls-2" d="M139.77,379.57a5.72,5.72,0,0,0-5.72,5.72h11.44A5.72,5.72,0,0,0,139.77,379.57Z"/><path class="cls-2" d="M172.47,379.57a5.72,5.72,0,0,0-5.72,5.72h11.44A5.72,5.72,0,0,0,172.47,379.57Z"/><path class="cls-2" d="M205.17,379.57a5.72,5.72,0,0,0-5.72,5.72h11.44A5.72,5.72,0,0,0,205.17,379.57Z"/><path class="cls-2" d="M241.68,254.49a5.73,5.73,0,1,0,5.72,5.72A5.73,5.73,0,0,0,241.68,254.49Z"/><path class="cls-2" d="M268.65,260.21a5.73,5.73,0,1,0,8.08-5.21l-4.52-.08A5.73,5.73,0,0,0,268.65,260.21Z"/><path class="cls-2" d="M301.35,260.21a5.73,5.73,0,1,0,9.13-4.59l-6.65-.12A5.73,5.73,0,0,0,301.35,260.21Z"/><path class="cls-2" d="M339.78,265.94a5.73,5.73,0,1,0-5.73-5.73A5.73,5.73,0,0,0,339.78,265.94Z"/><path class="cls-2" d="M241.68,285.76a5.73,5.73,0,1,0,5.72,5.72A5.73,5.73,0,0,0,241.68,285.76Z"/><path class="cls-2" d="M274.38,285.76a5.73,5.73,0,1,0,5.72,5.72A5.73,5.73,0,0,0,274.38,285.76Z"/><path class="cls-2" d="M307.08,285.76a5.73,5.73,0,1,0,5.72,5.72A5.73,5.73,0,0,0,307.08,285.76Z"/><path class="cls-2" d="M339.78,297.21a5.73,5.73,0,1,0-5.73-5.73A5.73,5.73,0,0,0,339.78,297.21Z"/><path class="cls-2" d="M241.68,317a5.73,5.73,0,1,0,5.72,5.72A5.73,5.73,0,0,0,241.68,317Z"/><path class="cls-2" d="M274.38,317a5.73,5.73,0,1,0,5.72,5.72A5.73,5.73,0,0,0,274.38,317Z"/><circle class="cls-2" cx="307.08" cy="322.75" r="5.72"/><path class="cls-2" d="M339.78,317a5.73,5.73,0,1,0,5.72,5.72A5.73,5.73,0,0,0,339.78,317Z"/><path class="cls-2" d="M241.68,348.3A5.73,5.73,0,1,0,247.4,354,5.73,5.73,0,0,0,241.68,348.3Z"/><path class="cls-2" d="M274.38,348.3A5.73,5.73,0,1,0,280.1,354,5.73,5.73,0,0,0,274.38,348.3Z"/><path class="cls-2" d="M307.08,348.3A5.73,5.73,0,1,0,312.8,354,5.73,5.73,0,0,0,307.08,348.3Z"/><path class="cls-2" d="M339.78,348.3A5.73,5.73,0,1,0,345.5,354,5.73,5.73,0,0,0,339.78,348.3Z"/><path class="cls-2" d="M368.26,357.88c0-.31,0-.63,0-.94,0-.47,0-.94-.07-1.41a10.18,10.18,0,0,0,.07-1.11v-4.28a5.71,5.71,0,0,0,0,7.74Z"/><path class="cls-2" d="M241.68,379.57a5.73,5.73,0,0,0-5.73,5.72H247.4A5.72,5.72,0,0,0,241.68,379.57Z"/><path class="cls-2" d="M274.38,379.57a5.73,5.73,0,0,0-5.73,5.72H280.1A5.72,5.72,0,0,0,274.38,379.57Z"/><path class="cls-2" d="M307.08,379.57a5.73,5.73,0,0,0-5.73,5.72H312.8A5.72,5.72,0,0,0,307.08,379.57Z"/><path class="cls-2" d="M339.78,379.57a5.73,5.73,0,0,0-5.73,5.72h5.88a28.91,28.91,0,0,0,5.54-.54A5.72,5.72,0,0,0,339.78,379.57Z"/><path class="cls-1" d="M353.36,187.12h2.49a19,19,0,0,0,18.94-17.84,5.6,5.6,0,0,1-2.31.49,5.72,5.72,0,0,1,0-11.44h.17c-15.25-44.2-64.78-78.11-126.17-85a5.71,5.71,0,0,1-10.08-.88c-4.29-.27-8.64-.41-13-.41s-8.67.14-12.93.41a5.72,5.72,0,0,1-10.09.87,192.77,192.77,0,0,0-44.51,10.32l-9.62,6.16A147.49,147.49,0,0,0,105.32,116l-8.55,5.47a104.16,104.16,0,0,0-22.66,36.87h.26A5.72,5.72,0,1,1,72,169.24,19,19,0,0,0,90.9,187.12h2.49a8.53,8.53,0,0,0,0,17H238.22a8.48,8.48,0,0,1,6,2.49l34.91,34.91a8.53,8.53,0,0,0,12.05,0l11.41-11.41a5.66,5.66,0,0,1-1.26-3.57,5.73,5.73,0,0,1,5.73-5.72,5.67,5.67,0,0,1,3.56,1.25l15.46-15.46a8.52,8.52,0,0,1,6-2.49h21.23a8.53,8.53,0,1,0,0-17ZM107.07,201a5.72,5.72,0,1,1,5.72-5.72A5.72,5.72,0,0,1,107.07,201Zm0-31.27a5.72,5.72,0,1,1,5.72-5.72A5.72,5.72,0,0,1,107.07,169.77Zm0-31.26a5.73,5.73,0,1,1,5.72-5.73A5.73,5.73,0,0,1,107.07,138.51ZM139.77,201a5.72,5.72,0,1,1,5.72-5.72A5.72,5.72,0,0,1,139.77,201Zm0-31.27a5.72,5.72,0,1,1,5.72-5.72A5.72,5.72,0,0,1,139.77,169.77Zm0-31.26a5.73,5.73,0,1,1,5.72-5.73A5.73,5.73,0,0,1,139.77,138.51Zm0-31.27a5.73,5.73,0,1,1,5.72-5.73A5.73,5.73,0,0,1,139.77,107.24Zm32.7,93.8a5.72,5.72,0,1,1,5.72-5.72A5.72,5.72,0,0,1,172.47,201Zm0-31.27a5.72,5.72,0,1,1,5.72-5.72A5.72,5.72,0,0,1,172.47,169.77Zm0-31.26a5.73,5.73,0,1,1,5.72-5.73A5.73,5.73,0,0,1,172.47,138.51Zm0-31.27a5.73,5.73,0,1,1,5.72-5.73A5.73,5.73,0,0,1,172.47,107.24Zm32.7,93.8a5.72,5.72,0,1,1,5.72-5.72A5.72,5.72,0,0,1,205.17,201Zm0-31.27a5.72,5.72,0,1,1,5.72-5.72A5.72,5.72,0,0,1,205.17,169.77Zm0-31.26a5.73,5.73,0,1,1,5.72-5.73A5.73,5.73,0,0,1,205.17,138.51Zm0-31.27a5.73,5.73,0,1,1,5.72-5.73A5.73,5.73,0,0,1,205.17,107.24ZM241.68,201a5.72,5.72,0,1,1,5.72-5.72A5.73,5.73,0,0,1,241.68,201Zm0-31.27a5.72,5.72,0,1,1,5.72-5.72A5.73,5.73,0,0,1,241.68,169.77Zm0-31.26a5.73,5.73,0,1,1,5.72-5.73A5.74,5.74,0,0,1,241.68,138.51Zm0-31.27a5.73,5.73,0,1,1,5.72-5.73A5.74,5.74,0,0,1,241.68,107.24Zm32.7,125.07a5.72,5.72,0,1,1,5.72-5.72A5.73,5.73,0,0,1,274.38,232.31Zm0-31.27a5.72,5.72,0,1,1,5.72-5.72A5.73,5.73,0,0,1,274.38,201Zm0-31.27a5.72,5.72,0,1,1,5.72-5.72A5.73,5.73,0,0,1,274.38,169.77Zm0-31.26a5.73,5.73,0,1,1,5.72-5.73A5.74,5.74,0,0,1,274.38,138.51Zm0-31.27a5.73,5.73,0,1,1,5.72-5.73A5.74,5.74,0,0,1,274.38,107.24Zm32.7,93.8a5.72,5.72,0,1,1,5.72-5.72A5.73,5.73,0,0,1,307.08,201Zm0-31.27a5.72,5.72,0,1,1,5.72-5.72A5.73,5.73,0,0,1,307.08,169.77Zm0-31.26a5.73,5.73,0,1,1,5.72-5.73A5.74,5.74,0,0,1,307.08,138.51Zm0-31.27a5.73,5.73,0,1,1,5.72-5.73A5.74,5.74,0,0,1,307.08,107.24Zm32.7,93.8a5.72,5.72,0,1,1,5.72-5.72A5.73,5.73,0,0,1,339.78,201Zm0-31.27a5.72,5.72,0,1,1,5.72-5.72A5.73,5.73,0,0,1,339.78,169.77Zm0-31.26a5.73,5.73,0,1,1,5.72-5.73A5.74,5.74,0,0,1,339.78,138.51Z"/><path class="cls-2" d="M205.17,76a5.73,5.73,0,0,0,5.28-3.51q-5.1.32-10.09.87A5.73,5.73,0,0,0,205.17,76Z"/><path class="cls-2" d="M139.77,95.79a5.73,5.73,0,1,0,5.72,5.72A5.72,5.72,0,0,0,139.77,95.79Z"/><path class="cls-2" d="M172.47,95.79a5.73,5.73,0,1,0,5.72,5.72A5.72,5.72,0,0,0,172.47,95.79Z"/><path class="cls-2" d="M205.17,95.79a5.73,5.73,0,1,0,5.72,5.72A5.72,5.72,0,0,0,205.17,95.79Z"/><path class="cls-2" d="M107.07,127.06a5.73,5.73,0,1,0,5.72,5.72A5.72,5.72,0,0,0,107.07,127.06Z"/><path class="cls-2" d="M139.77,127.06a5.73,5.73,0,1,0,5.72,5.72A5.72,5.72,0,0,0,139.77,127.06Z"/><path class="cls-2" d="M172.47,127.06a5.73,5.73,0,1,0,5.72,5.72A5.72,5.72,0,0,0,172.47,127.06Z"/><path class="cls-2" d="M205.17,127.06a5.73,5.73,0,1,0,5.72,5.72A5.72,5.72,0,0,0,205.17,127.06Z"/><path class="cls-2" d="M80.09,164.05a5.72,5.72,0,0,0-5.72-5.72h-.26c-.51,1.49-1,3-1.43,4.5a19.11,19.11,0,0,0-.72,6.4,5.72,5.72,0,0,0,8.13-5.19Z"/><path class="cls-2" d="M107.07,158.33a5.72,5.72,0,1,0,5.72,5.72A5.72,5.72,0,0,0,107.07,158.33Z"/><path class="cls-2" d="M139.77,158.33a5.72,5.72,0,1,0,5.72,5.72A5.72,5.72,0,0,0,139.77,158.33Z"/><path class="cls-2" d="M172.47,158.33a5.72,5.72,0,1,0,5.72,5.72A5.72,5.72,0,0,0,172.47,158.33Z"/><path class="cls-2" d="M205.17,158.33a5.72,5.72,0,1,0,5.72,5.72A5.72,5.72,0,0,0,205.17,158.33Z"/><circle class="cls-2" cx="107.07" cy="195.32" r="5.72"/><path class="cls-2" d="M139.77,189.6a5.72,5.72,0,1,0,5.72,5.72A5.72,5.72,0,0,0,139.77,189.6Z"/><path class="cls-2" d="M172.47,189.6a5.72,5.72,0,1,0,5.72,5.72A5.72,5.72,0,0,0,172.47,189.6Z"/><path class="cls-2" d="M205.17,189.6a5.72,5.72,0,1,0,5.72,5.72A5.72,5.72,0,0,0,205.17,189.6Z"/><path class="cls-2" d="M241.68,76a5.71,5.71,0,0,0,4.8-2.63c-3.32-.37-6.69-.67-10.08-.88A5.73,5.73,0,0,0,241.68,76Z"/><path class="cls-2" d="M241.68,95.79a5.73,5.73,0,1,0,5.72,5.72A5.73,5.73,0,0,0,241.68,95.79Z"/><path class="cls-2" d="M274.38,95.79a5.73,5.73,0,1,0,5.72,5.72A5.73,5.73,0,0,0,274.38,95.79Z"/><circle class="cls-2" cx="307.08" cy="101.51" r="5.72"/><path class="cls-2" d="M241.68,127.06a5.73,5.73,0,1,0,5.72,5.72A5.73,5.73,0,0,0,241.68,127.06Z"/><path class="cls-2" d="M274.38,127.06a5.73,5.73,0,1,0,5.72,5.72A5.73,5.73,0,0,0,274.38,127.06Z"/><path class="cls-2" d="M307.08,127.06a5.73,5.73,0,1,0,5.72,5.72A5.73,5.73,0,0,0,307.08,127.06Z"/><path class="cls-2" d="M339.78,127.06a5.73,5.73,0,1,0,5.72,5.72A5.73,5.73,0,0,0,339.78,127.06Z"/><path class="cls-2" d="M241.68,158.33a5.72,5.72,0,1,0,5.72,5.72A5.73,5.73,0,0,0,241.68,158.33Z"/><path class="cls-2" d="M274.38,158.33a5.72,5.72,0,1,0,5.72,5.72A5.73,5.73,0,0,0,274.38,158.33Z"/><path class="cls-2" d="M307.08,158.33a5.72,5.72,0,1,0,5.72,5.72A5.73,5.73,0,0,0,307.08,158.33Z"/><path class="cls-2" d="M339.78,158.33a5.72,5.72,0,1,0,5.72,5.72A5.73,5.73,0,0,0,339.78,158.33Z"/><path class="cls-2" d="M366.76,164.05a5.72,5.72,0,0,0,5.72,5.72,5.6,5.6,0,0,0,2.31-.49,18.86,18.86,0,0,0-.72-6.44c-.43-1.51-.91-3-1.42-4.5h-.17A5.72,5.72,0,0,0,366.76,164.05Z"/><path class="cls-2" d="M241.68,189.6a5.72,5.72,0,1,0,5.72,5.72A5.73,5.73,0,0,0,241.68,189.6Z"/><path class="cls-2" d="M274.38,189.6a5.72,5.72,0,1,0,5.72,5.72A5.73,5.73,0,0,0,274.38,189.6Z"/><circle class="cls-2" cx="307.08" cy="195.32" r="5.72"/><path class="cls-2" d="M339.78,189.6a5.72,5.72,0,1,0,5.72,5.72A5.73,5.73,0,0,0,339.78,189.6Z"/><path class="cls-2" d="M274.38,220.87a5.72,5.72,0,1,0,5.72,5.72A5.73,5.73,0,0,0,274.38,220.87Z"/><path class="cls-2" d="M301.35,226.59a5.66,5.66,0,0,0,1.26,3.57l8-8a5.67,5.67,0,0,0-3.56-1.25A5.73,5.73,0,0,0,301.35,226.59Z"/><rect class="cls-3" x="22.05" y="146.48" width="153.43" height="17.05" rx="8.52"/><rect class="cls-3" x="263.55" y="146.48" width="28.41" height="17.05" rx="8.52"/><path class="cls-2" d="M295.51,128.59a8.51,8.51,0,0,0-8.52-8.52H27a8.51,8.51,0,0,0-8.52,8.52h0A8.52,8.52,0,0,0,27,137.12H171.84a8.52,8.52,0,0,1,6,2.49l34.9,34.9a8.53,8.53,0,0,0,12.06,0l34.9-34.9a8.52,8.52,0,0,1,6-2.49H287a8.52,8.52,0,0,0,8.52-8.53Z"/><path class="cls-4" d="M157.39,7.17C85,7.17,24.43,44.33,9.8,93.89c-3.42,11.61,5.46,23.2,17.85,23.2H287.13c12.38,0,21.27-11.59,17.84-23.2C290.35,44.33,229.83,7.17,157.39,7.17Z"/><path class="cls-4" d="M301.65,268.8c0-4.86-4.28-8.8-9.56-8.8H14.56C9.28,260,5,263.94,5,268.8v19a8.91,8.91,0,0,0,.07,1c0,.43-.07.85-.07,1.29,0,14.41,12.68,26.09,28.33,26.09h240c15.65,0,28.33-11.68,28.33-26.09,0-.44,0-.86-.07-1.29a8.91,8.91,0,0,0,.07-1Z"/><path class="cls-5" d="M275.17,238H36a20.39,20.39,0,1,1,0-40.77H275.17a20.39,20.39,0,0,1,0,40.77Z"/><path class="cls-6" d="M295.51,128.59a8.51,8.51,0,0,0-8.52-8.52H27a8.51,8.51,0,0,0-8.52,8.52h0A8.52,8.52,0,0,0,27,137.12H171.84a8.52,8.52,0,0,1,6,2.49l34.9,34.9a8.53,8.53,0,0,0,12.06,0l34.9-34.9a8.52,8.52,0,0,1,6-2.49H287a8.52,8.52,0,0,0,8.52-8.53Z"/><path class="cls-6" d="M234.69,318.24h38.86a28.36,28.36,0,0,0,28.36-28.35c0-.47-.05-.94-.08-1.41a8.2,8.2,0,0,0,.08-1.12V266.73a9.57,9.57,0,0,0-9.57-9.57H14.57A9.56,9.56,0,0,0,5,266.73v20.63a10.2,10.2,0,0,0,.07,1.12c0,.47-.07.94-.07,1.41a28.35,28.35,0,0,0,28.35,28.35H175.47"/><path class="cls-6" d="M197.09,181.06c-3.15-3.91-6.3-7.82-12.59-7.82-12.6,0-12.6,15.63-25.19,15.63s-12.59-15.63-25.18-15.63S121.54,188.87,109,188.87s-12.59-15.63-25.18-15.63-12.59,15.63-25.18,15.63S46,173.24,33.41,173.24H32a16.32,16.32,0,0,0-8.19,30.45"/><path class="cls-6" d="M284.86,203.07a14.92,14.92,0,0,0,0-29.83h.38c-12.6,0-12.6,15.63-25.19,15.63-5.65,0-8.77-3.15-11.62-6.61"/><path class="cls-2" d="M19.21,247.23c0-5.11,3.79-9.25,8.48-9.25H286.32c4.69,0,8.48,4.14,8.48,9.25h0c0,5.11-3.79,9.25-8.48,9.25H142.24a8.13,8.13,0,0,0-6,2.71l-34.72,37.88a8,8,0,0,1-12,0L54.81,259.19a8.13,8.13,0,0,0-6-2.71H27.69c-4.69,0-8.48-4.14-8.48-9.25Z"/><path class="cls-6" d="M19.21,247.23c0-5.11,3.79-9.25,8.48-9.25H286.32c4.69,0,8.48,4.14,8.48,9.25h0c0,5.11-3.79,9.25-8.48,9.25H142.24a8.13,8.13,0,0,0-6,2.71l-34.72,37.88a8,8,0,0,1-12,0L54.81,259.19a8.13,8.13,0,0,0-6-2.71H27.69c-4.69,0-8.48-4.14-8.48-9.25Z"/><path class="cls-7" d="M305,93.89C290.35,44.33,229.83,7.17,157.39,7.17q-10.33,0-20.32,1c63.22,6.2,114,40.88,127.27,85.73,3.42,11.61-5.47,23.2-17.85,23.2h40.64C299.51,117.09,308.4,105.5,305,93.89Z"/><path class="cls-6" d="M30.4,54.42C19,66.68,10.65,80.68,6.31,95.79a19,19,0,0,0,18.22,24.28h265A19,19,0,0,0,307.7,95.79C292.77,43.9,231,5,157,5A197.66,197.66,0,0,0,89.48,16.6"/></svg>