<svg id="圖層_1" data-name="圖層 1" xmlns="http://www.w3.org/2000/svg" viewBox="0 0 1538.03 1270.3"><defs><style>.cls-1{fill:#ffebff;}.cls-2{fill:#1b0d62;}.cls-3{fill:#3a38b5;}.cls-4{fill:#3936bb;}.cls-5{fill:#29228c;}.cls-6{fill:#2a218e;}.cls-7{fill:#fad6c6;}.cls-8,.cls-9{fill:none;stroke-width:2px;}.cls-8{stroke:#fad6c6;stroke-miterlimit:10;}.cls-9{stroke:#ff698c;stroke-linecap:round;stroke-linejoin:round;}.cls-10{fill:#fca999;}.cls-11{fill:#f36f89;}.cls-12{fill:#6e84fb;}.cls-13{opacity:0.89;}.cls-14{fill:#fed914;}.cls-15{fill:#feceb7;}.cls-16{fill:#faa880;}.cls-17{fill:#21386e;}.cls-18{fill:#d5ddff;}.cls-19{fill:#fff;}</style></defs><title>20190226 Landing Page(Cut)</title><path class="cls-1" d="M1477,694.08c-140.07-155.49-410.44-65-594.15-166.29-126.34-69.62-185.66-214-264.44-334.25S397-38.66,262.51,12.87A192.75,192.75,0,0,0,197.06,54h0s-2.08,1.81-5.61,5.64c-22.11,23.12-38.06,51.46-49,83.2-34.24,86.26-60.32,242.63,7.66,499.93,0,0,57.09,235.31,264.08,419.77A439.05,439.05,0,0,0,451,1095.66c79.69,63.62,172,110.56,269.86,139.64,56.86,17.72,261.59,40.51,286.65,33.49a783.25,783.25,0,0,0,217.24-43.42c109.83-39,214.34-105.92,272.06-206.47S1554.9,780.57,1477,694.08Z"/><rect class="cls-2" x="1095.23" y="671.62" width="341.66" height="73.11" rx="36.56" transform="translate(2532.12 1416.35) rotate(180)"/><rect class="cls-3" x="1159.1" y="744.63" width="341.66" height="73.11" rx="36.56" transform="translate(2659.87 1562.37) rotate(180)"/><rect class="cls-2" y="428.67" width="341.66" height="73.11" rx="36.56" transform="translate(341.66 930.45) rotate(180)"/><rect class="cls-3" x="85.33" y="501.68" width="341.66" height="73.11" rx="36.56" transform="translate(512.33 1076.47) rotate(180)"/><rect class="cls-4" x="278.79" y="343.31" width="843.2" height="684.81" rx="23.41"/><rect class="cls-5" x="295.88" y="407.39" width="809.03" height="600.69" rx="23.41"/><rect class="cls-6" x="541.18" y="361.5" width="391.7" height="23.66"/><rect class="cls-6" x="961.14" y="361.5" width="85.44" height="23.66"/><rect class="cls-6" x="1068.26" y="361.82" width="32.2" height="1.97"/><rect class="cls-6" x="1068.26" y="372.34" width="32.2" height="1.97"/><rect class="cls-6" x="1068.26" y="382.85" width="32.2" height="1.97"/><circle class="cls-7" cx="355.85" cy="373.87" r="11.17"/><circle class="cls-6" cx="318.72" cy="374.2" r="11.17"/><circle class="cls-7" cx="393.31" cy="373.87" r="11.17"/><rect class="cls-8" x="278.79" y="343.31" width="843.2" height="684.81" rx="23.41"/><rect class="cls-8" x="295.88" y="407.39" width="809.03" height="600.69" rx="23.41"/><rect class="cls-8" x="541.18" y="361.5" width="391.7" height="23.66"/><rect class="cls-8" x="961.14" y="361.5" width="85.44" height="23.66"/><rect class="cls-8" x="1068.26" y="361.82" width="32.2" height="1.97"/><rect class="cls-8" x="1068.26" y="372.34" width="32.2" height="1.97"/><rect class="cls-8" x="1068.26" y="382.85" width="32.2" height="1.97"/><circle class="cls-8" cx="318.39" cy="373.87" r="11.17"/><circle class="cls-7" cx="318.39" cy="373.87" r="5.26"/><rect class="cls-7" x="206.23" y="952.1" width="80.87" height="17.31" rx="8.65" transform="translate(-714.08 1207.42) rotate(-90)"/><circle class="cls-7" cx="246.67" cy="897.75" r="8.65"/><rect class="cls-7" x="967.38" y="327.32" width="80.87" height="17.31" rx="8.65"/><rect class="cls-7" x="1068.72" y="327.32" width="80.87" height="17.31" rx="8.65"/><circle class="cls-7" cx="1173.48" cy="335.97" r="8.65"/><path class="cls-9" d="M951.69,938.16c20.53,22.56,30.32,53.33,37.59,82.06,6.1,24.1,10.68,48.63,14.82,73.18,9.93-8.57,20.46-25.84,20.46-25.84C1053.34,1041.84,964,950.5,951.69,938.16Z"/><path class="cls-9" d="M1024.39,1234.39q-6.41-54.54-15.3-108.79c-5.78-35.22-11.53-70.74-20.45-105.38-7.53-29.27-17.73-60.66-39.45-83.33a79.65,79.65,0,0,0-38.62-22.71,98.23,98.23,0,0,0-16.05-2.47,4.35,4.35,0,0,0,.93-5.15,179.61,179.61,0,0,1-13.7-29.43l-.46-1.24c6.72-3.27,10.87-9.34,11.54-17.57.39-4.74-.26-9.5-.46-14.23a43.26,43.26,0,0,1,.11-6.83c.37-3.18,1.44-6.23,1.81-9.41.78-6.83-.48-14-.38-20.84a155,155,0,0,1,1.85-21.93c.36-2.33-1-5.18-3.81-5a25.84,25.84,0,0,1-15.05-3.33c-4.78-2.79-7.9-7.29-11.71-11.17-7.33-7.47-17.22-11.15-27.24-13.4a131.25,131.25,0,0,0-15.37-2.76,24.84,24.84,0,0,0-15.53,3.38c-4.84,2.7-10.74,3.06-15.3,6.24a13.14,13.14,0,0,0-5.19,6.87c-10.11-1.69-27.62-3.27-26.09,9.17.41,3.35,2.19,6.58,3.43,9.68q2.19,5.47,4.37,10.93L777,817.57a4,4,0,0,0,2.53,2.4,3.5,3.5,0,0,0,.85.59,4.12,4.12,0,0,0,1.19,3.7c.18,7,.34,14,.55,21.07a3.62,3.62,0,0,0-2.5,1.83l-11.8,20c-1.88,3.19,1.21,6.36,4.45,5.79a17.39,17.39,0,0,0,11-6.94c.9,7.87,2.91,15.69,7.84,22C800,899.33,817.69,900.52,828,892q.38,12.59.74,25.15a3.75,3.75,0,0,0,1.12,2.67c-17.71,4.79-34.88,11.75-49.39,22.24a19.46,19.46,0,0,0-4.49,3q-5.36,3.2-10.6,6.58c-4.55,2.95-9.28,5.88-10.92,11.24a38.33,38.33,0,0,0-1.34,11.71h-.06c0,.53.1,1.07.15,1.6h0a205.81,205.81,0,0,0-49,17.48c-18.92-30.76-52.68-49.13-85.8-63.32,2.47-6.08,4.34-12.5,3.12-19-1.32-7-6.62-11.82-12.58-15.51s-11.82-6.69-16.39-12a37.66,37.66,0,0,1-8.6-19.19,3.89,3.89,0,0,0-3.8-2.79,10.19,10.19,0,0,0-3.86,1.17,3.77,3.77,0,0,0-4.75,2.54c-1.68,5.67-.41,11.25,1.34,16.75,1.94,6.11,3.35,11.23,1.77,17.59-1.43,5.76-3.23,11.64-1,17.46,2,5.27,6.22,9.23,10.64,12.72,9.71,7.65,18.83,15.6,26.42,25.29,7.92,10.12,13.42,21.21,19,32.63,5.69,11.74,13.54,21.61,23.09,30.68a406.91,406.91,0,0,0,31.8,27c10.23,7.9,20.57,16.28,34.54,14.75,13-1.43,26-5.75,37.87-11.07a139.91,139.91,0,0,0,13-6.68h0c3,2.16,6.69,2.52,11,.87a167.45,167.45,0,0,0,17.09-7.94,8.58,8.58,0,0,1,3.78.41c3.52,1.41,5.27,6.35,6.77,9.39a97.31,97.31,0,0,1,5.7,14.17,106.07,106.07,0,0,1,4.61,29.08c.25,9.79.47,19.33,3.41,28.79s6.63,18.46,5,28.52c-1.81,11-6.91,21.81-11.3,32a344.38,344.38,0,0,1-15.49,31.44c-.95,1.71-1.06,4.4,1.06,5.49l47.89,24.59c14.91,7.65,29.9,15.39,45.9,20.72,32.39,10.81,67,8.63,99.75.86,12.25-2.9,30.64-9,28.72-24.22A3.92,3.92,0,0,0,1024.39,1234.39ZM757.65,1007.2c-.08-.41-.17-.81-.24-1.21C757.48,1006.39,757.57,1006.79,757.65,1007.2Zm-.77-4c-.06-.34-.12-.69-.19-1C756.76,1002.48,756.82,1002.83,756.88,1003.17Zm-.69-4-.15-.87Zm-.64-3.95c0-.23-.07-.47-.11-.7C755.48,994.76,755.52,995,755.55,995.23Zm-.57-3.9c0-.18-.05-.37-.08-.55C754.93,991,755,991.15,755,991.33Zm-1.39-11.41v0Zm.87,7.55c0-.13,0-.26-.05-.39C754.43,987.21,754.44,987.34,754.46,987.47Zm-.46-3.81,0-.23Zm10.27,49.89c.42,1.33.84,2.65,1.28,4C765.11,1036.2,764.69,1034.88,764.27,1033.55Zm-6.09-23.68.3,1.38Zm.84,3.91.36,1.55Zm.91,3.92c.14.58.28,1.16.43,1.74C760.21,1018.86,760.07,1018.28,759.93,1017.7Zm1,3.95c.16.64.33,1.28.5,1.93C761.24,1022.93,761.07,1022.29,760.91,1021.65Zm1,4c.2.71.4,1.42.61,2.13C762.35,1027,762.15,1026.32,762,1025.61Zm1.13,4q.36,1.25.75,2.49Q763.44,1030.83,763.08,1029.58Zm5.29,11.72.22.23Zm-2.21-3c.18.31.37.61.56.91C766.53,1038.88,766.34,1038.58,766.16,1038.27Zm.73,1.16q.23.36.48.69Q767.12,1039.79,766.89,1039.43Zm.76,1a5.63,5.63,0,0,0,.38.45A5.63,5.63,0,0,1,767.65,1040.47Zm1.72,1.78.12.1ZM830.48,858.5l.84-.39-.61.7Zm-47.83,0c-.12-2.4-.21-4.8-.3-7.2.09,2.4.18,4.8.3,7.2,0,.62.07,1.24.11,1.86C782.72,859.72,782.68,859.1,782.65,858.48Zm67.87,56.71a115.66,115.66,0,0,1,24.91-3.41c-5.44.39-10.85,1.06-16.21,1.91C856.34,914.14,853.43,914.65,850.52,915.19Z"/><circle class="cls-10" cx="330.22" cy="688.98" r="4.27"/><circle class="cls-10" cx="330.22" cy="721.84" r="4.27"/><circle class="cls-10" cx="330.22" cy="754.7" r="4.27"/><circle class="cls-10" cx="330.22" cy="787.56" r="4.27"/><circle class="cls-11" cx="175.36" cy="191.52" r="35.32"/><circle class="cls-11" cx="62.73" cy="260.65" r="25.16"/><circle class="cls-11" cx="56.96" cy="345.17" r="16.01"/><path class="cls-11" d="M347.78,461.41h64.29a9.24,9.24,0,0,0,18.15,0H435a1.73,1.73,0,0,0,0-3.46h-4.79a9.24,9.24,0,0,0-18.15,0H347.78a1.73,1.73,0,1,0,0,3.46Z"/><path class="cls-11" d="M435,494.77H369.42a9.24,9.24,0,0,0-18.15,0h-3.49a1.74,1.74,0,0,0,0,3.47h3.49a9.24,9.24,0,0,0,18.15,0H435a1.74,1.74,0,0,0,0-3.47Z"/><path class="cls-11" d="M435,531.6H398.74a9.24,9.24,0,0,0-18.16,0h-32.8a1.74,1.74,0,0,0,0,3.47h32.8a9.24,9.24,0,0,0,18.16,0H435a1.74,1.74,0,0,0,0-3.47Z"/><rect class="cls-12" x="392.11" y="570.56" width="616.51" height="42.12" rx="20.31"/><rect class="cls-12" x="391.72" y="673.86" width="322.64" height="27.08" rx="13.06"/><rect class="cls-2" x="391.72" y="752.09" width="322.64" height="27.08" rx="13.06"/><rect class="cls-12" x="391.72" y="830.32" width="322.64" height="27.08" rx="13.06"/><rect class="cls-12" x="749.56" y="664.92" width="259.06" height="241.05" rx="69.36"/><g class="cls-13"><path class="cls-14" d="M985.21,940.79c20.53,22.56,30.32,53.33,37.59,82.06,6.09,24.1,10.68,48.62,14.82,73.18,9.93-8.58,20.46-25.84,20.46-25.84C1086.86,1044.47,997.53,953.13,985.21,940.79Z"/><path class="cls-14" d="M1059.22,1237q-6.4-54.54-15.3-108.8c-5.78-35.21-11.52-70.73-20.44-105.37-7.54-29.27-17.74-60.66-39.46-83.33A79.74,79.74,0,0,0,945.4,916.8a98.21,98.21,0,0,0-16-2.46,4.36,4.36,0,0,0,.94-5.15,180.49,180.49,0,0,1-13.71-29.43l-.46-1.25c6.72-3.26,10.87-9.34,11.54-17.56.39-4.74-.25-9.5-.46-14.23a43.26,43.26,0,0,1,.11-6.83c.38-3.18,1.44-6.23,1.81-9.42.79-6.82-.48-14-.38-20.83a156.47,156.47,0,0,1,1.85-21.93c.36-2.33-1-5.19-3.8-5a25.88,25.88,0,0,1-15.06-3.33c-4.78-2.79-7.9-7.29-11.71-11.17-7.33-7.47-17.21-11.15-27.24-13.41a133.56,133.56,0,0,0-15.36-2.75,24.85,24.85,0,0,0-15.54,3.38c-4.84,2.69-10.73,3.06-15.3,6.24a13.12,13.12,0,0,0-5.18,6.87A69.55,69.55,0,0,0,808,767.44c22.27,25.55,41.77,57.24,57.6,93.58l.6-.29-.48.57a491.52,491.52,0,0,1,20.41,56.35,115.31,115.31,0,0,1,24.18-3.24c-5.44.39-10.85,1.06-16.21,1.91-2.64.41-5.29.88-7.95,1.37,15.43,52.08,24.11,110.64,24.11,172.54,0,55.17-6.89,107.67-19.31,155.31,12.76,6.5,25.68,12.81,39.33,17.36,32.39,10.81,67,8.62,99.75.86,12.25-2.9,30.65-9,28.72-24.22A3.86,3.86,0,0,0,1059.22,1237Z"/><path class="cls-14" d="M886.1,917.69l0,0-.72.17Z"/><path class="cls-14" d="M865.55,861.44l.12-.14-.12-.28-.24.11Z"/></g><path class="cls-15" d="M834.65,825.58c-3.53-3.73-7.53-4-12.36-4-3.15,0-3.85-1.7-5.49-4.12a24.12,24.12,0,0,0-3.79-4.57,24.85,24.85,0,0,0-11.75-5.9,26.68,26.68,0,0,0-18.84,3c-2.28-.56-5,.66-4.93,3.68,0,.1,0,.21,0,.32l0,.05a3.92,3.92,0,0,0,.2,5.58c.29,11.41.49,22.83,1.06,34.22.51,10.23,1.93,21.16,8.43,29.48,12,15.34,40.06,12.18,44.37-8.35a25.43,25.43,0,0,0-5-21.11c6.65-2.92,12.19-8.51,12.6-16.08A16.81,16.81,0,0,0,834.65,825.58Z"/><path class="cls-16" d="M778.2,840.72a3.64,3.64,0,0,0-2.5,1.84q-5.91,10-11.8,20c-1.89,3.18,1.21,6.36,4.45,5.79a17.37,17.37,0,0,0,10.95-6.94c-.29-2.5-.47-5-.59-7.49C778.49,849.5,778.34,845.11,778.2,840.72Z"/><path class="cls-15" d="M891.51,902a180.49,180.49,0,0,1-13.71-29.43c-1.56-4.38-2.85-7.14-7.71-8.23-5.27-1.17-10.15-3.22-15.24-5-8.53-2.94-19.14-4.12-26.37,2.46-6,5.43-7.25,14.32-3.93,21.45a3.69,3.69,0,0,0-.53,2.12q.39,13.6.79,27.21c.12,3.8,4.58,4.76,6.74,2.86a116.18,116.18,0,0,1,56.56-7.53C891.19,908.25,892.87,904.32,891.51,902Z"/><path class="cls-17" d="M891.81,780.48c.37-2.33-1-5.19-3.8-5a25.84,25.84,0,0,1-15-3.33c-4.78-2.79-7.91-7.29-11.72-11.17-7.33-7.47-17.21-11.15-27.23-13.4a131.25,131.25,0,0,0-15.37-2.76,24.81,24.81,0,0,0-15.53,3.38c-4.84,2.7-10.74,3.06-15.3,6.24a13.14,13.14,0,0,0-5.19,6.87c-10.11-1.69-27.62-3.27-26.09,9.16.41,3.36,2.18,6.59,3.43,9.69q2.17,5.48,4.37,10.93L773.07,813a4.06,4.06,0,0,0,2.53,2.4,3.16,3.16,0,0,0,2.51.89c6.57-.86,11.6,4.54,16.4,8.23,6.14,4.72,12.5,7.54,20.36,5.84,6.76-1.47,16.28-6.87,19.79,2.36,3.32,8.72-3.89,16.92-9.19,23a4.1,4.1,0,0,0-.61,4.78c8.27,16,31.15,16,46.43,12.83,10.27-2.13,16.74-9.14,17.6-19.61.39-4.74-.26-9.5-.47-14.23a43.26,43.26,0,0,1,.12-6.83c.37-3.18,1.44-6.23,1.8-9.41.79-6.83-.47-14-.38-20.84A158,158,0,0,1,891.81,780.48Z"/><path class="cls-18" d="M947.75,933.56c20.53,22.56,30.32,53.33,37.59,82.06,6.09,24.1,10.68,48.63,14.82,73.18,9.93-8.58,20.46-25.84,20.46-25.84C1049.4,1037.24,960.07,945.9,947.75,933.56Z"/><path class="cls-19" d="M1020.45,1229.79q-6.42-54.54-15.3-108.79c-5.79-35.22-11.53-70.74-20.45-105.38C977.16,986.35,967,955,945.25,932.29a79.73,79.73,0,0,0-38.63-22.72c-16.82-4.07-34.38-3.17-51.34-.48q-5.19.81-10.42,1.81a3.49,3.49,0,0,0-3.08-.38q-5.84,1.69-11.58,3.61c-19.21,4.8-38,12-53.65,23.35a19.25,19.25,0,0,0-4.49,3q-5.37,3.19-10.6,6.58c-4.56,2.95-9.28,5.88-10.92,11.24A38.33,38.33,0,0,0,749.2,970h-.06c1.7,19.55,5.35,41.43,12.47,62.88l.16-.09c.15.28.29.56.45.83,3.27,5.81,8.4,7.82,14.84,5.35a167.45,167.45,0,0,0,17.09-7.94,8.6,8.6,0,0,1,3.78.41c3.51,1.41,5.27,6.35,6.77,9.39a97.31,97.31,0,0,1,5.7,14.17,106.45,106.45,0,0,1,4.61,29.08c.25,9.79.47,19.33,3.4,28.79s6.64,18.46,5,28.52c-1.8,11-6.9,21.81-11.29,32a344.38,344.38,0,0,1-15.49,31.44c-1,1.7-1.07,4.4,1,5.49l47.9,24.59c14.91,7.65,29.9,15.39,45.9,20.72,32.39,10.81,67,8.63,99.75.86,12.25-2.9,30.64-9,28.71-24.22A3.86,3.86,0,0,0,1020.45,1229.79Z"/><path class="cls-15" d="M762.22,1033.66c-.16-.27-.3-.55-.45-.83l-.16.09c-6.93-20.87-10.56-42.14-12.33-61.28a206.14,206.14,0,0,0-49,17.47c-18.92-30.75-52.68-49.12-85.8-63.31,2.46-6.08,4.34-12.5,3.11-19-1.31-7-6.61-11.82-12.58-15.51s-11.81-6.69-16.39-12a37.73,37.73,0,0,1-8.59-19.2,3.9,3.9,0,0,0-3.81-2.78,10.2,10.2,0,0,0-3.85,1.17,3.78,3.78,0,0,0-4.76,2.54c-1.67,5.67-.4,11.25,1.35,16.75,1.93,6.11,3.35,11.23,1.77,17.59-1.44,5.76-3.23,11.64-1,17.46,2,5.27,6.21,9.23,10.63,12.72,9.71,7.65,18.84,15.6,26.43,25.29,7.92,10.12,13.41,21.21,19,32.63,5.69,11.74,13.53,21.61,23.09,30.68a406.91,406.91,0,0,0,31.8,27c10.23,7.9,20.57,16.28,34.53,14.75,13.06-1.43,26-5.75,37.87-11.07a138.66,138.66,0,0,0,13-6.68A13.89,13.89,0,0,1,762.22,1033.66Z"/></svg>