<svg id="圖層_1" data-name="圖層 1" xmlns="http://www.w3.org/2000/svg" viewBox="0 0 412.7 445.1"><defs><style>.cls-1,.cls-5{fill:none;}.cls-2{fill:#fed914;}.cls-3{fill:#fff;}.cls-4{fill:#e45175;}.cls-5{stroke:#29228c;stroke-linecap:round;stroke-linejoin:round;stroke-width:10px;}.cls-6{fill:#29228c;}.cls-7{fill:#d5ddff;}</style></defs><title>20190226 Landing Page(Cut)</title><path class="cls-1" d="M364.23,210H348.07a16.18,16.18,0,0,1-5.88-1.11V349.28a16,16,0,0,1,5.88-1.11h16.16A16.18,16.18,0,0,0,380.39,332V226.19c0-.27,0-.53,0-.8A16.16,16.16,0,0,0,364.23,210Z"/><path class="cls-1" d="M403.52,346.22a5.72,5.72,0,0,1,8.31-5.1,48.77,48.77,0,0,0,.87-9.11v-12.5a5.73,5.73,0,1,1,0-9.11V288.24a5.73,5.73,0,1,1,0-9.11V257a5.73,5.73,0,1,1,0-9.11V226.19c0-.16,0-.32,0-.48a5.72,5.72,0,1,1-3.45-10.29,5.65,5.65,0,0,1,2.36.51,48.48,48.48,0,0,0-47.37-38.21H348.07a16.18,16.18,0,0,0-5.88,1.11v-17.1a5.72,5.72,0,0,1,0-11v-9.68l-.09-.16a32.18,32.18,0,0,0-8.93-59.37,33.45,33.45,0,0,0-7.5-.76,32.14,32.14,0,0,0-17.79,5,32.3,32.3,0,0,0-28-21,5.72,5.72,0,0,1-10.15.67,30.88,30.88,0,0,0-9.36,3.7,64.62,64.62,0,0,0-47.84-21.42h-.94A63.81,63.81,0,0,0,178.33,57a5.72,5.72,0,1,1-7.52,5.43s0-.07,0-.1a65.13,65.13,0,0,0-9.46,9.54c.56-.32,1.13-.63,1.7-.93a65.33,65.33,0,0,0-6.86,9.92,65.85,65.85,0,0,0-10.54-.51h-.44A64.58,64.58,0,0,0,114.39,89a5.72,5.72,0,1,1-8.8,6.1,65.3,65.3,0,0,0-9.4,9.48l1.63-.88a64,64,0,0,0-14.93,41.14v7.82a5.71,5.71,0,0,1,0,7.18v24.09a5.71,5.71,0,0,1,0,7.18v26.44a5.71,5.71,0,0,1,0,7.18v17c0,8.92,7.63,16.16,16.56,16.16a16,16,0,0,0,7.36-1.78,5.72,5.72,0,0,1,7.76-8.31A17.75,17.75,0,0,0,116,241.6v7.82a5.68,5.68,0,0,1,0,6v25.29a5.68,5.68,0,0,1,0,6V312a5.68,5.68,0,0,1,0,6v25.29a5.68,5.68,0,0,1,0,6V374.5a5.68,5.68,0,0,1,0,6v25.29a5.68,5.68,0,0,1,0,6v1a32.33,32.33,0,0,0,23.63,31.13,5.72,5.72,0,1,1,6.93,1.14c.58,0,1.16,0,1.75,0H173.9a5.72,5.72,0,1,1,5.28,0H206.6a5.72,5.72,0,1,1,5.28,0H239.3a5.72,5.72,0,1,1,5.28,0H272a5.72,5.72,0,1,1,5.28,0H304.7a5.72,5.72,0,1,1,5.29,0,32.3,32.3,0,0,0,32.16-30.87,5.73,5.73,0,0,1,0-11V383a5.74,5.74,0,1,1,6.53-2.49h15.51a48.14,48.14,0,0,0,7.15-.53,5.8,5.8,0,0,1-.56-2.46,5.72,5.72,0,0,1,11.42-.48,48.67,48.67,0,0,0,26.2-25.13A5.72,5.72,0,0,1,403.52,346.22ZM343.84,88a5.72,5.72,0,1,1-5.72,5.72A5.73,5.73,0,0,1,343.84,88Zm0,31.27a5.72,5.72,0,1,1-5.72,5.72A5.73,5.73,0,0,1,343.84,119.26Zm-232.7,107.6a5.72,5.72,0,1,1,5.72-5.72A5.73,5.73,0,0,1,111.14,226.86Zm0-33.62a5.72,5.72,0,1,1,5.72-5.72A5.73,5.73,0,0,1,111.14,193.24Zm0-31.27a5.72,5.72,0,1,1,5.72-5.72A5.73,5.73,0,0,1,111.14,162Zm0-31.27a5.72,5.72,0,1,1,5.72-5.72A5.73,5.73,0,0,1,111.14,130.7Zm32.7,283.78a5.72,5.72,0,1,1,5.72-5.72A5.73,5.73,0,0,1,143.84,414.48Zm0-31.27a5.72,5.72,0,1,1,5.72-5.72A5.73,5.73,0,0,1,143.84,383.21Zm0-31.27a5.72,5.72,0,1,1,5.72-5.72A5.73,5.73,0,0,1,143.84,351.94Zm0-31.27a5.72,5.72,0,1,1,5.72-5.72A5.73,5.73,0,0,1,143.84,320.67Zm0-31.27a5.72,5.72,0,1,1,5.72-5.72A5.73,5.73,0,0,1,143.84,289.4Zm0-31.27a5.72,5.72,0,1,1,5.72-5.72A5.73,5.73,0,0,1,143.84,258.13Zm0-31.27a5.72,5.72,0,1,1,5.72-5.72A5.73,5.73,0,0,1,143.84,226.86Zm0-33.62a5.72,5.72,0,1,1,5.72-5.72A5.73,5.73,0,0,1,143.84,193.24Zm0-31.27a5.72,5.72,0,1,1,5.72-5.72A5.73,5.73,0,0,1,143.84,162Zm0-31.27a5.72,5.72,0,1,1,5.72-5.72A5.73,5.73,0,0,1,143.84,130.7Zm0-31.27a5.72,5.72,0,1,1,5.72-5.72A5.73,5.73,0,0,1,143.84,99.43Zm32.7,315.05a5.72,5.72,0,1,1,5.72-5.72A5.73,5.73,0,0,1,176.54,414.48Zm0-31.27a5.72,5.72,0,1,1,5.72-5.72A5.73,5.73,0,0,1,176.54,383.21Zm0-31.27a5.72,5.72,0,1,1,5.72-5.72A5.73,5.73,0,0,1,176.54,351.94Zm0-31.27a5.72,5.72,0,1,1,5.72-5.72A5.73,5.73,0,0,1,176.54,320.67Zm0-31.27a5.72,5.72,0,1,1,5.72-5.72A5.73,5.73,0,0,1,176.54,289.4Zm0-31.27a5.72,5.72,0,1,1,5.72-5.72A5.73,5.73,0,0,1,176.54,258.13Zm0-31.27a5.72,5.72,0,1,1,5.72-5.72A5.73,5.73,0,0,1,176.54,226.86Zm0-33.62a5.72,5.72,0,1,1,5.72-5.72A5.73,5.73,0,0,1,176.54,193.24Zm0-31.27a5.72,5.72,0,1,1,5.72-5.72A5.73,5.73,0,0,1,176.54,162Zm0-31.27a5.72,5.72,0,1,1,5.72-5.72A5.73,5.73,0,0,1,176.54,130.7Zm0-31.27a5.72,5.72,0,1,1,5.72-5.72A5.73,5.73,0,0,1,176.54,99.43Zm32.7,315.05a5.72,5.72,0,1,1,5.72-5.72A5.73,5.73,0,0,1,209.24,414.48Zm0-31.27a5.72,5.72,0,1,1,5.72-5.72A5.73,5.73,0,0,1,209.24,383.21Zm0-31.27a5.72,5.72,0,1,1,5.72-5.72A5.73,5.73,0,0,1,209.24,351.94Zm0-31.27A5.72,5.72,0,1,1,215,315,5.73,5.73,0,0,1,209.24,320.67Zm0-31.27a5.72,5.72,0,1,1,5.72-5.72A5.73,5.73,0,0,1,209.24,289.4Zm0-31.27a5.72,5.72,0,1,1,5.72-5.72A5.73,5.73,0,0,1,209.24,258.13Zm0-31.27a5.72,5.72,0,1,1,5.72-5.72A5.73,5.73,0,0,1,209.24,226.86Zm0-33.62a5.72,5.72,0,1,1,5.72-5.72A5.73,5.73,0,0,1,209.24,193.24Zm0-31.27a5.72,5.72,0,1,1,5.72-5.72A5.73,5.73,0,0,1,209.24,162Zm0-31.27A5.72,5.72,0,1,1,215,125,5.73,5.73,0,0,1,209.24,130.7Zm0-31.27A5.72,5.72,0,1,1,215,93.71,5.73,5.73,0,0,1,209.24,99.43Zm0-31.27A5.72,5.72,0,1,1,215,62.44,5.73,5.73,0,0,1,209.24,68.16Zm32.7,346.32a5.72,5.72,0,1,1,5.72-5.72A5.73,5.73,0,0,1,241.94,414.48Zm0-31.27a5.72,5.72,0,1,1,5.72-5.72A5.73,5.73,0,0,1,241.94,383.21Zm0-31.27a5.72,5.72,0,1,1,5.72-5.72A5.73,5.73,0,0,1,241.94,351.94Zm0-31.27a5.72,5.72,0,1,1,5.72-5.72A5.73,5.73,0,0,1,241.94,320.67Zm0-31.27a5.72,5.72,0,1,1,5.72-5.72A5.73,5.73,0,0,1,241.94,289.4Zm0-31.27a5.72,5.72,0,1,1,5.72-5.72A5.73,5.73,0,0,1,241.94,258.13Zm0-31.27a5.72,5.72,0,1,1,5.72-5.72A5.73,5.73,0,0,1,241.94,226.86Zm0-33.62a5.72,5.72,0,1,1,5.72-5.72A5.73,5.73,0,0,1,241.94,193.24Zm0-31.27a5.72,5.72,0,1,1,5.72-5.72A5.73,5.73,0,0,1,241.94,162Zm0-31.27a5.72,5.72,0,1,1,5.72-5.72A5.73,5.73,0,0,1,241.94,130.7Zm0-31.27a5.72,5.72,0,1,1,5.72-5.72A5.73,5.73,0,0,1,241.94,99.43Zm0-31.27a5.72,5.72,0,1,1,5.72-5.72A5.73,5.73,0,0,1,241.94,68.16Zm32.7,346.32a5.72,5.72,0,1,1,5.72-5.72A5.72,5.72,0,0,1,274.64,414.48Zm0-31.27a5.72,5.72,0,1,1,5.72-5.72A5.72,5.72,0,0,1,274.64,383.21Zm0-31.27a5.72,5.72,0,1,1,5.72-5.72A5.72,5.72,0,0,1,274.64,351.94Zm0-31.27a5.72,5.72,0,1,1,5.72-5.72A5.72,5.72,0,0,1,274.64,320.67Zm0-31.27a5.72,5.72,0,1,1,5.72-5.72A5.72,5.72,0,0,1,274.64,289.4Zm0-31.27a5.72,5.72,0,1,1,5.72-5.72A5.72,5.72,0,0,1,274.64,258.13Zm0-31.27a5.72,5.72,0,1,1,5.72-5.72A5.72,5.72,0,0,1,274.64,226.86Zm0-33.62a5.72,5.72,0,1,1,5.72-5.72A5.72,5.72,0,0,1,274.64,193.24Zm0-31.27a5.72,5.72,0,1,1,5.72-5.72A5.72,5.72,0,0,1,274.64,162Zm0-31.27a5.72,5.72,0,1,1,5.72-5.72A5.72,5.72,0,0,1,274.64,130.7Zm0-31.27a5.72,5.72,0,1,1,5.72-5.72A5.72,5.72,0,0,1,274.64,99.43Zm32.7,315.05a5.72,5.72,0,1,1,5.72-5.72A5.72,5.72,0,0,1,307.34,414.48Zm0-31.27a5.72,5.72,0,1,1,5.72-5.72A5.72,5.72,0,0,1,307.34,383.21Zm0-31.27a5.72,5.72,0,1,1,5.72-5.72A5.72,5.72,0,0,1,307.34,351.94Zm0-31.27a5.72,5.72,0,1,1,5.72-5.72A5.72,5.72,0,0,1,307.34,320.67Zm0-31.27a5.72,5.72,0,1,1,5.72-5.72A5.72,5.72,0,0,1,307.34,289.4Zm0-31.27a5.72,5.72,0,1,1,5.72-5.72A5.72,5.72,0,0,1,307.34,258.13Zm0-31.27a5.72,5.72,0,1,1,5.72-5.72A5.72,5.72,0,0,1,307.34,226.86Zm0-33.62a5.72,5.72,0,1,1,5.72-5.72A5.72,5.72,0,0,1,307.34,193.24Zm0-31.27a5.72,5.72,0,1,1,5.72-5.72A5.72,5.72,0,0,1,307.34,162Zm0-31.27a5.72,5.72,0,1,1,5.72-5.72A5.72,5.72,0,0,1,307.34,130.7Zm0-31.27a5.72,5.72,0,1,1,5.72-5.72A5.72,5.72,0,0,1,307.34,99.43Zm36.5,82.37a5.72,5.72,0,1,1-5.72,5.72A5.73,5.73,0,0,1,343.84,181.8Zm36.55,44.39v22a5.7,5.7,0,0,1,0,8.46v22.81a5.7,5.7,0,0,1,0,8.46v22.81a5.7,5.7,0,0,1,0,8.46V332a16.08,16.08,0,0,1-2.52,8.65,5.72,5.72,0,1,1-7,6.09,16.08,16.08,0,0,1-6.62,1.42h-15a5.72,5.72,0,1,1-7-7.43V320.43a5.72,5.72,0,0,1,0-11V289.16a5.72,5.72,0,0,1,0-11V257.89a5.72,5.72,0,0,1,0-11V226.62a5.72,5.72,0,0,1,0-11v-6.73a16.18,16.18,0,0,0,5.88,1.11h16.16a16.11,16.11,0,0,1,12,5.39h.26a5.71,5.71,0,0,1,3.83,10C380.38,225.66,380.39,225.92,380.39,226.19Zm-3.85-32.95a5.72,5.72,0,1,1,5.73-5.72A5.72,5.72,0,0,1,376.54,193.24Z"/><path class="cls-2" d="M176.54,68.16A5.72,5.72,0,0,0,178.33,57a64.93,64.93,0,0,0-7.51,5.33s0,.06,0,.1A5.73,5.73,0,0,0,176.54,68.16Z"/><circle class="cls-2" cx="209.24" cy="62.44" r="5.72"/><path class="cls-2" d="M241.94,56.72a5.72,5.72,0,1,0,5.72,5.72A5.73,5.73,0,0,0,241.94,56.72Z"/><path class="cls-2" d="M274.64,68.16a5.73,5.73,0,0,0,5.25-3.44c-.77-.06-1.54-.09-2.32-.09h-.94a31.9,31.9,0,0,0-6.89.76A5.71,5.71,0,0,0,274.64,68.16Z"/><path class="cls-2" d="M111.14,99.43A5.72,5.72,0,0,0,114.39,89a63.85,63.85,0,0,0-8.8,6.1A5.71,5.71,0,0,0,111.14,99.43Z"/><path class="cls-2" d="M143.84,88a5.72,5.72,0,1,0,5.72,5.72A5.73,5.73,0,0,0,143.84,88Z"/><path class="cls-2" d="M176.54,88a5.72,5.72,0,1,0,5.72,5.72A5.73,5.73,0,0,0,176.54,88Z"/><path class="cls-2" d="M209.24,88A5.72,5.72,0,1,0,215,93.71,5.73,5.73,0,0,0,209.24,88Z"/><path class="cls-2" d="M241.94,88a5.72,5.72,0,1,0,5.72,5.72A5.73,5.73,0,0,0,241.94,88Z"/><path class="cls-2" d="M274.64,88a5.72,5.72,0,1,0,5.72,5.72A5.72,5.72,0,0,0,274.64,88Z"/><path class="cls-2" d="M307.34,88a5.72,5.72,0,1,0,5.72,5.72A5.72,5.72,0,0,0,307.34,88Z"/><path class="cls-2" d="M111.14,119.26a5.72,5.72,0,1,0,5.72,5.72A5.73,5.73,0,0,0,111.14,119.26Z"/><path class="cls-2" d="M143.84,119.26a5.72,5.72,0,1,0,5.72,5.72A5.73,5.73,0,0,0,143.84,119.26Z"/><path class="cls-2" d="M176.54,119.26a5.72,5.72,0,1,0,5.72,5.72A5.73,5.73,0,0,0,176.54,119.26Z"/><path class="cls-2" d="M209.24,119.26A5.72,5.72,0,1,0,215,125,5.73,5.73,0,0,0,209.24,119.26Z"/><path class="cls-2" d="M241.94,119.26a5.72,5.72,0,1,0,5.72,5.72A5.73,5.73,0,0,0,241.94,119.26Z"/><path class="cls-2" d="M274.64,119.26a5.72,5.72,0,1,0,5.72,5.72A5.72,5.72,0,0,0,274.64,119.26Z"/><path class="cls-2" d="M307.34,119.26a5.72,5.72,0,1,0,5.72,5.72A5.72,5.72,0,0,0,307.34,119.26Z"/><path class="cls-2" d="M82.89,152.66v7.18a5.71,5.71,0,0,0,0-7.18Z"/><path class="cls-2" d="M111.14,150.53a5.72,5.72,0,1,0,5.72,5.72A5.73,5.73,0,0,0,111.14,150.53Z"/><path class="cls-2" d="M143.84,150.53a5.72,5.72,0,1,0,5.72,5.72A5.73,5.73,0,0,0,143.84,150.53Z"/><path class="cls-2" d="M176.54,150.53a5.72,5.72,0,1,0,5.72,5.72A5.73,5.73,0,0,0,176.54,150.53Z"/><circle class="cls-2" cx="209.24" cy="156.25" r="5.72"/><path class="cls-2" d="M241.94,150.53a5.72,5.72,0,1,0,5.72,5.72A5.73,5.73,0,0,0,241.94,150.53Z"/><path class="cls-2" d="M274.64,150.53a5.72,5.72,0,1,0,5.72,5.72A5.72,5.72,0,0,0,274.64,150.53Z"/><path class="cls-2" d="M307.34,150.53a5.72,5.72,0,1,0,5.72,5.72A5.72,5.72,0,0,0,307.34,150.53Z"/><path class="cls-2" d="M82.89,183.93v7.18a5.71,5.71,0,0,0,0-7.18Z"/><path class="cls-2" d="M111.14,181.8a5.72,5.72,0,1,0,5.72,5.72A5.73,5.73,0,0,0,111.14,181.8Z"/><path class="cls-2" d="M143.84,181.8a5.72,5.72,0,1,0,5.72,5.72A5.73,5.73,0,0,0,143.84,181.8Z"/><path class="cls-2" d="M176.54,181.8a5.72,5.72,0,1,0,5.72,5.72A5.73,5.73,0,0,0,176.54,181.8Z"/><path class="cls-2" d="M209.24,181.8a5.72,5.72,0,1,0,5.72,5.72A5.73,5.73,0,0,0,209.24,181.8Z"/><path class="cls-2" d="M241.94,181.8a5.72,5.72,0,1,0,5.72,5.72A5.73,5.73,0,0,0,241.94,181.8Z"/><path class="cls-2" d="M274.64,181.8a5.72,5.72,0,1,0,5.72,5.72A5.72,5.72,0,0,0,274.64,181.8Z"/><path class="cls-2" d="M307.34,181.8a5.72,5.72,0,1,0,5.72,5.72A5.72,5.72,0,0,0,307.34,181.8Z"/><path class="cls-2" d="M343.84,99.43a5.72,5.72,0,1,0-5.72-5.72A5.73,5.73,0,0,0,343.84,99.43Z"/><path class="cls-2" d="M343.84,130.7a5.72,5.72,0,1,0-5.72-5.72A5.73,5.73,0,0,0,343.84,130.7Z"/><path class="cls-2" d="M338.12,156.25a5.74,5.74,0,0,0,4.07,5.48v-11A5.73,5.73,0,0,0,338.12,156.25Z"/><path class="cls-2" d="M343.84,193.24a5.72,5.72,0,1,0-5.72-5.72A5.73,5.73,0,0,0,343.84,193.24Z"/><path class="cls-2" d="M376.54,181.8a5.72,5.72,0,1,0,5.73,5.72A5.72,5.72,0,0,0,376.54,181.8Z"/><path class="cls-2" d="M82.89,217.55v7.18a5.71,5.71,0,0,0,0-7.18Z"/><path class="cls-2" d="M111.14,215.42a5.72,5.72,0,1,0,5.72,5.72A5.73,5.73,0,0,0,111.14,215.42Z"/><path class="cls-2" d="M143.84,215.42a5.72,5.72,0,1,0,5.72,5.72A5.73,5.73,0,0,0,143.84,215.42Z"/><path class="cls-2" d="M176.54,215.42a5.72,5.72,0,1,0,5.72,5.72A5.73,5.73,0,0,0,176.54,215.42Z"/><path class="cls-2" d="M209.24,215.42a5.72,5.72,0,1,0,5.72,5.72A5.73,5.73,0,0,0,209.24,215.42Z"/><path class="cls-2" d="M241.94,215.42a5.72,5.72,0,1,0,5.72,5.72A5.73,5.73,0,0,0,241.94,215.42Z"/><path class="cls-2" d="M274.64,215.42a5.72,5.72,0,1,0,5.72,5.72A5.72,5.72,0,0,0,274.64,215.42Z"/><path class="cls-2" d="M307.34,215.42a5.72,5.72,0,1,0,5.72,5.72A5.72,5.72,0,0,0,307.34,215.42Z"/><path class="cls-2" d="M105.41,252.41a5.68,5.68,0,0,0,1.4,3.74,16.93,16.93,0,0,0,7.76-8.31,5.72,5.72,0,0,0-9.16,4.57Z"/><path class="cls-2" d="M116,249.42v6a5.68,5.68,0,0,0,0-6Z"/><path class="cls-2" d="M143.84,246.69a5.72,5.72,0,1,0,5.72,5.72A5.73,5.73,0,0,0,143.84,246.69Z"/><path class="cls-2" d="M176.54,246.69a5.72,5.72,0,1,0,5.72,5.72A5.73,5.73,0,0,0,176.54,246.69Z"/><path class="cls-2" d="M209.24,246.69a5.72,5.72,0,1,0,5.72,5.72A5.73,5.73,0,0,0,209.24,246.69Z"/><path class="cls-2" d="M241.94,246.69a5.72,5.72,0,1,0,5.72,5.72A5.73,5.73,0,0,0,241.94,246.69Z"/><path class="cls-2" d="M274.64,246.69a5.72,5.72,0,1,0,5.72,5.72A5.72,5.72,0,0,0,274.64,246.69Z"/><path class="cls-2" d="M307.34,246.69a5.72,5.72,0,1,0,5.72,5.72A5.72,5.72,0,0,0,307.34,246.69Z"/><path class="cls-2" d="M116,280.69v6a5.68,5.68,0,0,0,0-6Z"/><path class="cls-2" d="M143.84,278a5.72,5.72,0,1,0,5.72,5.72A5.73,5.73,0,0,0,143.84,278Z"/><path class="cls-2" d="M176.54,278a5.72,5.72,0,1,0,5.72,5.72A5.73,5.73,0,0,0,176.54,278Z"/><path class="cls-2" d="M209.24,278a5.72,5.72,0,1,0,5.72,5.72A5.73,5.73,0,0,0,209.24,278Z"/><path class="cls-2" d="M241.94,278a5.72,5.72,0,1,0,5.72,5.72A5.73,5.73,0,0,0,241.94,278Z"/><path class="cls-2" d="M274.64,278a5.72,5.72,0,1,0,5.72,5.72A5.72,5.72,0,0,0,274.64,278Z"/><path class="cls-2" d="M307.34,278a5.72,5.72,0,1,0,5.72,5.72A5.72,5.72,0,0,0,307.34,278Z"/><path class="cls-2" d="M116,312v6a5.68,5.68,0,0,0,0-6Z"/><path class="cls-2" d="M143.84,309.23a5.72,5.72,0,1,0,5.72,5.72A5.73,5.73,0,0,0,143.84,309.23Z"/><path class="cls-2" d="M176.54,309.23a5.72,5.72,0,1,0,5.72,5.72A5.73,5.73,0,0,0,176.54,309.23Z"/><path class="cls-2" d="M209.24,309.23A5.72,5.72,0,1,0,215,315,5.73,5.73,0,0,0,209.24,309.23Z"/><path class="cls-2" d="M241.94,309.23a5.72,5.72,0,1,0,5.72,5.72A5.73,5.73,0,0,0,241.94,309.23Z"/><path class="cls-2" d="M274.64,309.23a5.72,5.72,0,1,0,5.72,5.72A5.72,5.72,0,0,0,274.64,309.23Z"/><path class="cls-2" d="M307.34,309.23a5.72,5.72,0,1,0,5.72,5.72A5.72,5.72,0,0,0,307.34,309.23Z"/><path class="cls-2" d="M116,343.23v6a5.68,5.68,0,0,0,0-6Z"/><path class="cls-2" d="M143.84,340.5a5.72,5.72,0,1,0,5.72,5.72A5.73,5.73,0,0,0,143.84,340.5Z"/><path class="cls-2" d="M176.54,340.5a5.72,5.72,0,1,0,5.72,5.72A5.73,5.73,0,0,0,176.54,340.5Z"/><circle class="cls-2" cx="209.24" cy="346.22" r="5.72"/><path class="cls-2" d="M241.94,340.5a5.72,5.72,0,1,0,5.72,5.72A5.73,5.73,0,0,0,241.94,340.5Z"/><path class="cls-2" d="M274.64,340.5a5.72,5.72,0,1,0,5.72,5.72A5.72,5.72,0,0,0,274.64,340.5Z"/><path class="cls-2" d="M307.34,340.5a5.72,5.72,0,1,0,5.72,5.72A5.72,5.72,0,0,0,307.34,340.5Z"/><path class="cls-2" d="M116,374.5v6a5.68,5.68,0,0,0,0-6Z"/><path class="cls-2" d="M143.84,371.77a5.72,5.72,0,1,0,5.72,5.72A5.73,5.73,0,0,0,143.84,371.77Z"/><path class="cls-2" d="M176.54,371.77a5.72,5.72,0,1,0,5.72,5.72A5.73,5.73,0,0,0,176.54,371.77Z"/><path class="cls-2" d="M209.24,371.77a5.72,5.72,0,1,0,5.72,5.72A5.73,5.73,0,0,0,209.24,371.77Z"/><path class="cls-2" d="M241.94,371.77a5.72,5.72,0,1,0,5.72,5.72A5.73,5.73,0,0,0,241.94,371.77Z"/><path class="cls-2" d="M274.64,371.77a5.72,5.72,0,1,0,5.72,5.72A5.72,5.72,0,0,0,274.64,371.77Z"/><path class="cls-2" d="M307.34,371.77a5.72,5.72,0,1,0,5.72,5.72A5.72,5.72,0,0,0,307.34,371.77Z"/><path class="cls-2" d="M116,405.77v6a5.68,5.68,0,0,0,0-6Z"/><path class="cls-2" d="M143.84,403a5.72,5.72,0,1,0,5.72,5.72A5.73,5.73,0,0,0,143.84,403Z"/><path class="cls-2" d="M176.54,403a5.72,5.72,0,1,0,5.72,5.72A5.73,5.73,0,0,0,176.54,403Z"/><path class="cls-2" d="M209.24,403a5.72,5.72,0,1,0,5.72,5.72A5.73,5.73,0,0,0,209.24,403Z"/><path class="cls-2" d="M241.94,403a5.72,5.72,0,1,0,5.72,5.72A5.73,5.73,0,0,0,241.94,403Z"/><path class="cls-2" d="M274.64,403a5.72,5.72,0,1,0,5.72,5.72A5.72,5.72,0,0,0,274.64,403Z"/><path class="cls-2" d="M307.34,403a5.72,5.72,0,1,0,5.72,5.72A5.72,5.72,0,0,0,307.34,403Z"/><path class="cls-2" d="M149.56,440a5.73,5.73,0,1,0-9.92,3.89,33.11,33.11,0,0,0,6.93,1.14A5.73,5.73,0,0,0,149.56,440Z"/><path class="cls-2" d="M182.26,440a5.73,5.73,0,1,0-8.36,5.07h5.28A5.7,5.7,0,0,0,182.26,440Z"/><path class="cls-2" d="M215,440a5.73,5.73,0,1,0-8.36,5.07h5.28A5.7,5.7,0,0,0,215,440Z"/><path class="cls-2" d="M247.66,440a5.73,5.73,0,1,0-8.36,5.07h5.28A5.7,5.7,0,0,0,247.66,440Z"/><path class="cls-2" d="M280.36,440A5.72,5.72,0,1,0,272,445.1h5.28A5.7,5.7,0,0,0,280.36,440Z"/><path class="cls-2" d="M313.06,440a5.72,5.72,0,1,0-8.36,5.07H310A5.71,5.71,0,0,0,313.06,440Z"/><path class="cls-2" d="M338.12,221.14a5.73,5.73,0,0,0,4.07,5.48v-11A5.74,5.74,0,0,0,338.12,221.14Z"/><path class="cls-2" d="M382.27,221.14a5.73,5.73,0,0,0-5.73-5.72h-.26a16.09,16.09,0,0,1,4.09,10A5.72,5.72,0,0,0,382.27,221.14Z"/><path class="cls-2" d="M403.52,221.14a5.73,5.73,0,0,0,9.17,4.57,49.16,49.16,0,0,0-1.09-9.78,5.65,5.65,0,0,0-2.36-.51A5.72,5.72,0,0,0,403.52,221.14Z"/><path class="cls-2" d="M338.12,252.41a5.73,5.73,0,0,0,4.07,5.48v-11A5.74,5.74,0,0,0,338.12,252.41Z"/><path class="cls-2" d="M382.27,252.41a5.71,5.71,0,0,0-1.88-4.23v8.46A5.69,5.69,0,0,0,382.27,252.41Z"/><path class="cls-2" d="M403.52,252.41A5.73,5.73,0,0,0,412.7,257v-9.11a5.72,5.72,0,0,0-9.18,4.55Z"/><path class="cls-2" d="M338.12,283.68a5.73,5.73,0,0,0,4.07,5.48v-11A5.74,5.74,0,0,0,338.12,283.68Z"/><path class="cls-2" d="M382.27,283.68a5.71,5.71,0,0,0-1.88-4.23v8.46A5.69,5.69,0,0,0,382.27,283.68Z"/><path class="cls-2" d="M403.52,283.68a5.73,5.73,0,0,0,9.18,4.56v-9.11a5.72,5.72,0,0,0-9.18,4.55Z"/><path class="cls-2" d="M338.12,315a5.73,5.73,0,0,0,4.07,5.48v-11A5.74,5.74,0,0,0,338.12,315Z"/><path class="cls-2" d="M382.27,315a5.71,5.71,0,0,0-1.88-4.23v8.46A5.69,5.69,0,0,0,382.27,315Z"/><path class="cls-2" d="M403.52,315a5.73,5.73,0,0,0,9.18,4.56V310.4a5.72,5.72,0,0,0-9.18,4.55Z"/><path class="cls-2" d="M342.19,349.28v-8.54a5.72,5.72,0,1,0,7,7.43h-1.15A16,16,0,0,0,342.19,349.28Z"/><path class="cls-2" d="M370.85,346.75a5.72,5.72,0,1,0,7-6.09A16.16,16.16,0,0,1,370.85,346.75Z"/><path class="cls-2" d="M403.52,346.22a5.72,5.72,0,0,0,4.92,5.66,47.82,47.82,0,0,0,3.39-10.76,5.72,5.72,0,0,0-8.31,5.1Z"/><path class="cls-2" d="M343.84,371.77a5.72,5.72,0,0,0-1.65,11.2v-3.6a16.18,16.18,0,0,0,5.88,1.11h.65a5.71,5.71,0,0,0-4.88-8.71Z"/><path class="cls-2" d="M376.54,371.77a5.72,5.72,0,0,0-5.72,5.72,5.8,5.8,0,0,0,.56,2.46A48.09,48.09,0,0,0,382.24,377,5.71,5.71,0,0,0,376.54,371.77Z"/><path class="cls-2" d="M338.12,408.76a5.73,5.73,0,0,0,4,5.47c0-.48,0-1,0-1.44v-.19h0v-9.32A5.74,5.74,0,0,0,338.12,408.76Z"/><path class="cls-3" d="M38.12,369.93v.19a32.32,32.32,0,0,0,32.31,32.32H232a32.32,32.32,0,0,0,32.31-32.32v-.19Z"/><polygon class="cls-4" points="264.3 370.12 264.3 98.42 264.21 98.26 38.12 98.7 38.12 370.12 264.3 370.12"/><polyline class="cls-5" points="264.3 370.12 264.3 98.42 264.21 98.26 38.12 98.7 38.12 370.12"/><path class="cls-3" d="M334.81,183.52V289.34a48.47,48.47,0,0,1-48.47,48.47H270.19A16.15,16.15,0,0,1,254,321.66h0a16.15,16.15,0,0,1,16.16-16.16h16.15a16.15,16.15,0,0,0,16.16-16.16V183.52a16.15,16.15,0,0,0-16.16-16.15H270.19A16.16,16.16,0,0,1,254,151.21h0a16.15,16.15,0,0,1,16.16-16.15h16.15A48.46,48.46,0,0,1,334.81,183.52Z"/><path class="cls-6" d="M218,365.21a5.35,5.35,0,1,0,5.34,5.34A5.35,5.35,0,0,0,218,365.21Z"/><path class="cls-5" d="M334.81,183.52V289.34a48.47,48.47,0,0,1-48.47,48.47H270.19A16.15,16.15,0,0,1,254,321.66h0a16.15,16.15,0,0,1,16.16-16.16h16.15a16.15,16.15,0,0,0,16.16-16.16V183.52a16.15,16.15,0,0,0-16.16-16.15H270.19A16.16,16.16,0,0,1,254,151.21h0a16.15,16.15,0,0,1,16.16-16.15h16.15A48.46,48.46,0,0,1,334.81,183.52Z"/><path class="cls-5" d="M155,369.93H38.12v.19a32.32,32.32,0,0,0,32.31,32.32H232a32.32,32.32,0,0,0,32.31-32.32v-.19H236.21"/><path class="cls-6" d="M88.58,167.12a8.08,8.08,0,0,0-8.08,8.08V329.49a8.08,8.08,0,0,0,16.16,0V175.2A8.08,8.08,0,0,0,88.58,167.12Z"/><path class="cls-6" d="M149.28,167.12a8.08,8.08,0,0,0-8.08,8.08V329.49a8.08,8.08,0,0,0,16.15,0V175.2A8.07,8.07,0,0,0,149.28,167.12Z"/><path class="cls-6" d="M210,167.12a8.08,8.08,0,0,0-8.08,8.08V329.49a8.08,8.08,0,0,0,16.16,0V175.2A8.08,8.08,0,0,0,210,167.12Z"/><path class="cls-3" d="M279.61,62.93c6.15,27.28-22,49.11-48.43,35.66v68.2a16.16,16.16,0,1,1-32.31,0V134.48c0-11.15.4-31.74-35.54-31.74a10.71,10.71,0,0,0-7.72,3.27,40.37,40.37,0,0,1-57.34.73,14.09,14.09,0,0,0-10-4,8.07,8.07,0,0,0-7.24,4.52,48.24,48.24,0,0,1-43,27.22v64.45a16.8,16.8,0,0,1-16.56,16.33C12.63,215.26,5,208,5,199.11V102.17c0-38.43,33.94-69,73.32-64A64.29,64.29,0,0,1,182.83,26.79,31.36,31.36,0,0,1,199.68,22a32.32,32.32,0,0,1,30.49,21.61,32.32,32.32,0,0,1,49.44,19.36Z"/><path class="cls-7" d="M58.71,54.07a65.41,65.41,0,0,1,13-16.33A64.83,64.83,0,0,0,18.3,61.91,65,65,0,0,1,58.71,54.07Z"/><path class="cls-7" d="M278.68,62.93a32.32,32.32,0,0,0-49.44-19.36A32.32,32.32,0,0,0,198.74,22a31.38,31.38,0,0,0-16.85,4.83,64.2,64.2,0,0,0-98.42,2.42A63.83,63.83,0,0,1,115,20.87a64.67,64.67,0,0,1,48.18,21.79,31.35,31.35,0,0,1,16.85-4.82,32.3,32.3,0,0,1,30.49,21.61,32.27,32.27,0,0,1,46.74,41.49A32.16,32.16,0,0,0,278.68,62.93Z"/><path class="cls-5" d="M279.61,62.93c6.15,27.28-22,49.11-48.43,35.66v68.2a16.16,16.16,0,1,1-32.31,0V134.48c0-11.15.4-31.74-35.54-31.74a10.71,10.71,0,0,0-7.72,3.27,40.37,40.37,0,0,1-57.34.73,14.09,14.09,0,0,0-10-4,8.07,8.07,0,0,0-7.24,4.52,48.24,48.24,0,0,1-43,27.22v64.45a16.8,16.8,0,0,1-16.56,16.33C12.63,215.26,5,208,5,199.11V102.17c0-38.43,33.94-69,73.32-64A64.29,64.29,0,0,1,182.83,26.79,31.36,31.36,0,0,1,199.68,22a32.32,32.32,0,0,1,30.49,21.61,32.32,32.32,0,0,1,49.44,19.36Z"/></svg>