<svg id="圖層_1" data-name="圖層 1" xmlns="http://www.w3.org/2000/svg" viewBox="0 0 568.52 402.79"><defs><style>.cls-1,.cls-5{fill:none;}.cls-2{fill:#fed914;}.cls-3{fill:#fff;}.cls-4{fill:#d5ddff;}.cls-5{stroke:#29228c;stroke-linecap:round;stroke-linejoin:round;stroke-width:10px;}.cls-6{fill:#e45175;}.cls-7{fill:#29228c;}</style></defs><title>20190226 Landing Page(Cut)</title><path class="cls-1" d="M475.45,293.74a176.83,176.83,0,0,0,8-23.1,5.73,5.73,0,1,1,1.6-6.35,180.13,180.13,0,0,0-2.19-89.36,5.72,5.72,0,1,1-3.35-10.49,178.55,178.55,0,0,0-29-52.27,5.72,5.72,0,0,1-7.41-8.69A179.7,179.7,0,0,0,418,80.7a5.72,5.72,0,0,1-9.43-4.36,5.6,5.6,0,0,1,.37-2,178.15,178.15,0,0,0-56.82-24.54,5.69,5.69,0,0,1-8.1-1.72,178.7,178.7,0,0,0-22.12-2.75,5.72,5.72,0,0,1-11.44-.25s0-.07,0-.11a180.88,180.88,0,0,0-25.33,1.82,5.71,5.71,0,0,1-10,1.73,177.67,177.67,0,0,0-58,22.86A5.72,5.72,0,1,1,208.58,77a179.94,179.94,0,0,0-29.13,25.34,5.72,5.72,0,1,1-3.6,5.31,5.84,5.84,0,0,1,.22-1.57,179.36,179.36,0,0,0-21.8,31,6,6,0,0,1,.32,1.89,5.72,5.72,0,0,1-4.22,5.52,179.24,179.24,0,0,0-4.79,148.5,5.72,5.72,0,1,1,4.68,10.23A179.54,179.54,0,0,0,241.77,389a5.72,5.72,0,0,1,10.92,2.37,6,6,0,0,1-.25,1.7,179.66,179.66,0,0,0,123.49-2.57,5.72,5.72,0,0,1,5.65-4.85,5.62,5.62,0,0,1,3.3,1.06A179.67,179.67,0,0,0,474,297.1,5.71,5.71,0,0,1,475.45,293.74Zm4.23-98a5.72,5.72,0,1,1-5.72,5.72A5.72,5.72,0,0,1,479.68,195.7Zm0,33.62A5.73,5.73,0,1,1,474,235,5.72,5.72,0,0,1,479.68,229.32ZM148.87,272a5.73,5.73,0,1,1,5.72-5.73A5.73,5.73,0,0,1,148.87,272Zm0-31.27a5.73,5.73,0,1,1,5.72-5.73A5.72,5.72,0,0,1,148.87,240.77Zm0-33.63a5.72,5.72,0,1,1,5.72-5.72A5.72,5.72,0,0,1,148.87,207.14Zm0-31.27a5.72,5.72,0,1,1,5.72-5.72A5.72,5.72,0,0,1,148.87,175.87Zm32.7,158.71a5.73,5.73,0,1,1,5.72-5.73A5.73,5.73,0,0,1,181.57,334.58Zm0-31.27a5.73,5.73,0,1,1,5.72-5.73A5.73,5.73,0,0,1,181.57,303.31Zm0-31.27a5.73,5.73,0,1,1,5.72-5.73A5.73,5.73,0,0,1,181.57,272Zm0-31.27a5.73,5.73,0,1,1,5.72-5.73A5.72,5.72,0,0,1,181.57,240.77Zm0-33.63a5.72,5.72,0,1,1,5.72-5.72A5.72,5.72,0,0,1,181.57,207.14Zm0-31.27a5.72,5.72,0,1,1,5.72-5.72A5.72,5.72,0,0,1,181.57,175.87Zm0-31.26a5.73,5.73,0,1,1,5.72-5.73A5.73,5.73,0,0,1,181.57,144.61Zm32.7,221.24a5.73,5.73,0,1,1,5.72-5.73A5.73,5.73,0,0,1,214.27,365.85Zm0-31.27a5.73,5.73,0,1,1,5.72-5.73A5.73,5.73,0,0,1,214.27,334.58Zm0-31.27a5.73,5.73,0,1,1,5.72-5.73A5.73,5.73,0,0,1,214.27,303.31Zm0-31.27a5.73,5.73,0,1,1,5.72-5.73A5.73,5.73,0,0,1,214.27,272Zm0-31.27A5.73,5.73,0,1,1,220,235,5.72,5.72,0,0,1,214.27,240.77Zm0-33.63a5.72,5.72,0,1,1,5.72-5.72A5.72,5.72,0,0,1,214.27,207.14Zm0-31.27a5.72,5.72,0,1,1,5.72-5.72A5.72,5.72,0,0,1,214.27,175.87Zm0-31.26a5.73,5.73,0,1,1,5.72-5.73A5.73,5.73,0,0,1,214.27,144.61Zm0-31.27a5.73,5.73,0,1,1,5.72-5.73A5.73,5.73,0,0,1,214.27,113.34ZM247,365.85a5.73,5.73,0,1,1,5.72-5.73A5.73,5.73,0,0,1,247,365.85Zm0-31.27a5.73,5.73,0,1,1,5.72-5.73A5.73,5.73,0,0,1,247,334.58Zm0-31.27a5.73,5.73,0,1,1,5.72-5.73A5.73,5.73,0,0,1,247,303.31ZM247,272a5.73,5.73,0,1,1,5.72-5.73A5.73,5.73,0,0,1,247,272Zm0-31.27a5.73,5.73,0,1,1,5.72-5.73A5.72,5.72,0,0,1,247,240.77Zm0-33.63a5.72,5.72,0,1,1,5.72-5.72A5.72,5.72,0,0,1,247,207.14Zm0-31.27a5.72,5.72,0,1,1,5.72-5.72A5.72,5.72,0,0,1,247,175.87Zm0-31.26a5.73,5.73,0,1,1,5.72-5.73A5.73,5.73,0,0,1,247,144.61Zm0-31.27a5.73,5.73,0,1,1,5.72-5.73A5.73,5.73,0,0,1,247,113.34Zm0-31.27a5.73,5.73,0,1,1,5.72-5.73A5.73,5.73,0,0,1,247,82.07Zm32.7,315.05a5.73,5.73,0,1,1,5.72-5.73A5.73,5.73,0,0,1,279.67,397.12Zm0-31.27a5.73,5.73,0,1,1,5.72-5.73A5.73,5.73,0,0,1,279.67,365.85Zm0-31.27a5.73,5.73,0,1,1,5.72-5.73A5.73,5.73,0,0,1,279.67,334.58Zm0-31.27a5.73,5.73,0,1,1,5.72-5.73A5.73,5.73,0,0,1,279.67,303.31Zm0-31.27a5.73,5.73,0,1,1,5.72-5.73A5.73,5.73,0,0,1,279.67,272Zm0-31.27a5.73,5.73,0,1,1,5.72-5.73A5.72,5.72,0,0,1,279.67,240.77Zm0-33.63a5.72,5.72,0,1,1,5.72-5.72A5.72,5.72,0,0,1,279.67,207.14Zm0-31.27a5.72,5.72,0,1,1,5.72-5.72A5.72,5.72,0,0,1,279.67,175.87Zm0-31.26a5.73,5.73,0,1,1,5.72-5.73A5.73,5.73,0,0,1,279.67,144.61Zm0-31.27a5.73,5.73,0,1,1,5.72-5.73A5.73,5.73,0,0,1,279.67,113.34Zm0-31.27a5.73,5.73,0,1,1,5.72-5.73A5.73,5.73,0,0,1,279.67,82.07Zm36.51,315.05a5.73,5.73,0,1,1,5.72-5.73A5.74,5.74,0,0,1,316.18,397.12Zm0-31.27a5.73,5.73,0,1,1,5.72-5.73A5.74,5.74,0,0,1,316.18,365.85Zm0-31.27a5.73,5.73,0,1,1,5.72-5.73A5.74,5.74,0,0,1,316.18,334.58Zm0-31.27a5.73,5.73,0,1,1,5.72-5.73A5.74,5.74,0,0,1,316.18,303.31Zm0-31.27a5.73,5.73,0,1,1,5.72-5.73A5.74,5.74,0,0,1,316.18,272Zm0-31.27A5.73,5.73,0,1,1,321.9,235,5.73,5.73,0,0,1,316.18,240.77Zm0-33.63a5.72,5.72,0,1,1,5.72-5.72A5.73,5.73,0,0,1,316.18,207.14Zm0-31.27a5.72,5.72,0,1,1,5.72-5.72A5.73,5.73,0,0,1,316.18,175.87Zm0-31.26a5.73,5.73,0,1,1,5.72-5.73A5.74,5.74,0,0,1,316.18,144.61Zm0-31.27a5.73,5.73,0,1,1,5.72-5.73A5.74,5.74,0,0,1,316.18,113.34Zm0-31.27a5.73,5.73,0,1,1,5.72-5.73A5.74,5.74,0,0,1,316.18,82.07Zm32.7,315.05a5.73,5.73,0,1,1,5.72-5.73A5.74,5.74,0,0,1,348.88,397.12Zm0-31.27a5.73,5.73,0,1,1,5.72-5.73A5.74,5.74,0,0,1,348.88,365.85Zm0-31.27a5.73,5.73,0,1,1,5.72-5.73A5.74,5.74,0,0,1,348.88,334.58Zm0-31.27a5.73,5.73,0,1,1,5.72-5.73A5.74,5.74,0,0,1,348.88,303.31Zm0-31.27a5.73,5.73,0,1,1,5.72-5.73A5.74,5.74,0,0,1,348.88,272Zm0-31.27A5.73,5.73,0,1,1,354.6,235,5.73,5.73,0,0,1,348.88,240.77Zm0-33.63a5.72,5.72,0,1,1,5.72-5.72A5.73,5.73,0,0,1,348.88,207.14Zm0-31.27a5.72,5.72,0,1,1,5.72-5.72A5.73,5.73,0,0,1,348.88,175.87Zm0-31.26a5.73,5.73,0,1,1,5.72-5.73A5.74,5.74,0,0,1,348.88,144.61Zm0-31.27a5.73,5.73,0,1,1,5.72-5.73A5.74,5.74,0,0,1,348.88,113.34Zm0-31.27a5.73,5.73,0,1,1,5.72-5.73A5.74,5.74,0,0,1,348.88,82.07Zm32.7,283.78a5.73,5.73,0,1,1,5.72-5.73A5.73,5.73,0,0,1,381.58,365.85Zm0-31.27a5.73,5.73,0,1,1,5.72-5.73A5.73,5.73,0,0,1,381.58,334.58Zm0-31.27a5.73,5.73,0,1,1,5.72-5.73A5.73,5.73,0,0,1,381.58,303.31Zm0-31.27a5.73,5.73,0,1,1,5.72-5.73A5.73,5.73,0,0,1,381.58,272Zm0-31.27A5.73,5.73,0,1,1,387.3,235,5.72,5.72,0,0,1,381.58,240.77Zm0-33.63a5.72,5.72,0,1,1,5.72-5.72A5.72,5.72,0,0,1,381.58,207.14Zm0-31.27a5.72,5.72,0,1,1,5.72-5.72A5.72,5.72,0,0,1,381.58,175.87Zm0-31.26a5.73,5.73,0,1,1,5.72-5.73A5.73,5.73,0,0,1,381.58,144.61Zm0-31.27a5.73,5.73,0,1,1,5.72-5.73A5.73,5.73,0,0,1,381.58,113.34Zm0-31.27a5.73,5.73,0,1,1,5.72-5.73A5.73,5.73,0,0,1,381.58,82.07Zm32.7,283.78a5.73,5.73,0,1,1,5.72-5.73A5.73,5.73,0,0,1,414.28,365.85Zm0-31.27a5.73,5.73,0,1,1,5.72-5.73A5.73,5.73,0,0,1,414.28,334.58Zm0-31.27a5.73,5.73,0,1,1,5.72-5.73A5.73,5.73,0,0,1,414.28,303.31Zm0-31.27a5.73,5.73,0,1,1,5.72-5.73A5.73,5.73,0,0,1,414.28,272Zm0-31.27A5.73,5.73,0,1,1,420,235,5.72,5.72,0,0,1,414.28,240.77Zm0-33.63a5.72,5.72,0,1,1,5.72-5.72A5.72,5.72,0,0,1,414.28,207.14Zm0-31.27a5.72,5.72,0,1,1,5.72-5.72A5.72,5.72,0,0,1,414.28,175.87Zm0-31.26a5.73,5.73,0,1,1,5.72-5.73A5.73,5.73,0,0,1,414.28,144.61Zm0-31.27a5.73,5.73,0,1,1,5.72-5.73A5.73,5.73,0,0,1,414.28,113.34ZM447,334.58a5.73,5.73,0,1,1,5.72-5.73A5.73,5.73,0,0,1,447,334.58Zm0-31.27a5.73,5.73,0,1,1,5.72-5.73A5.73,5.73,0,0,1,447,303.31ZM447,272a5.73,5.73,0,1,1,5.72-5.73A5.73,5.73,0,0,1,447,272Zm0-31.27A5.73,5.73,0,1,1,452.7,235,5.72,5.72,0,0,1,447,240.77Zm0-33.63a5.72,5.72,0,1,1,5.72-5.72A5.72,5.72,0,0,1,447,207.14Zm0-31.27a5.72,5.72,0,1,1,5.72-5.72A5.72,5.72,0,0,1,447,175.87Zm0-31.26a5.73,5.73,0,1,1,5.72-5.73A5.73,5.73,0,0,1,447,144.61Z"/><path class="cls-2" d="M279.67,50.8a5.71,5.71,0,0,0,5.46-4c-3.37.49-6.72,1.06-10,1.73A5.74,5.74,0,0,0,279.67,50.8Z"/><path class="cls-2" d="M214.27,82.07a5.73,5.73,0,0,0,2.83-10.7Q212.77,74,208.58,77A5.73,5.73,0,0,0,214.27,82.07Z"/><path class="cls-2" d="M247,70.62a5.73,5.73,0,1,0,5.72,5.72A5.72,5.72,0,0,0,247,70.62Z"/><circle class="cls-2" cx="279.67" cy="76.34" r="5.72"/><path class="cls-2" d="M181.57,113.34a5.73,5.73,0,1,0-2.12-11c-1.15,1.23-2.27,2.48-3.38,3.74a5.84,5.84,0,0,0-.22,1.57A5.73,5.73,0,0,0,181.57,113.34Z"/><path class="cls-2" d="M214.27,101.89a5.73,5.73,0,1,0,5.72,5.72A5.72,5.72,0,0,0,214.27,101.89Z"/><path class="cls-2" d="M247,101.89a5.73,5.73,0,1,0,5.72,5.72A5.72,5.72,0,0,0,247,101.89Z"/><path class="cls-2" d="M279.67,101.89a5.73,5.73,0,1,0,5.72,5.72A5.72,5.72,0,0,0,279.67,101.89Z"/><path class="cls-2" d="M154.59,138.88a6,6,0,0,0-.32-1.89q-2,3.66-3.9,7.41A5.72,5.72,0,0,0,154.59,138.88Z"/><path class="cls-2" d="M181.57,133.16a5.73,5.73,0,1,0,5.72,5.72A5.72,5.72,0,0,0,181.57,133.16Z"/><path class="cls-2" d="M214.27,133.16a5.73,5.73,0,1,0,5.72,5.72A5.72,5.72,0,0,0,214.27,133.16Z"/><path class="cls-2" d="M247,133.16a5.73,5.73,0,1,0,5.72,5.72A5.72,5.72,0,0,0,247,133.16Z"/><path class="cls-2" d="M279.67,133.16a5.73,5.73,0,1,0,5.72,5.72A5.72,5.72,0,0,0,279.67,133.16Z"/><path class="cls-2" d="M148.87,164.43a5.72,5.72,0,1,0,5.72,5.72A5.72,5.72,0,0,0,148.87,164.43Z"/><circle class="cls-2" cx="181.57" cy="170.15" r="5.72"/><path class="cls-2" d="M214.27,164.43a5.72,5.72,0,1,0,5.72,5.72A5.72,5.72,0,0,0,214.27,164.43Z"/><path class="cls-2" d="M247,164.43a5.72,5.72,0,1,0,5.72,5.72A5.72,5.72,0,0,0,247,164.43Z"/><circle class="cls-2" cx="279.67" cy="170.15" r="5.72"/><path class="cls-2" d="M148.87,195.7a5.72,5.72,0,1,0,5.72,5.72A5.72,5.72,0,0,0,148.87,195.7Z"/><path class="cls-2" d="M181.57,195.7a5.72,5.72,0,1,0,5.72,5.72A5.72,5.72,0,0,0,181.57,195.7Z"/><path class="cls-2" d="M214.27,195.7a5.72,5.72,0,1,0,5.72,5.72A5.72,5.72,0,0,0,214.27,195.7Z"/><path class="cls-2" d="M247,195.7a5.72,5.72,0,1,0,5.72,5.72A5.72,5.72,0,0,0,247,195.7Z"/><path class="cls-2" d="M279.67,195.7a5.72,5.72,0,1,0,5.72,5.72A5.72,5.72,0,0,0,279.67,195.7Z"/><path class="cls-2" d="M316.18,50.8a5.73,5.73,0,0,0,5.71-5.48c-3.71-.23-7.44-.36-11.2-.36h-.23s0,.08,0,.11A5.74,5.74,0,0,0,316.18,50.8Z"/><path class="cls-2" d="M348.88,50.8a5.7,5.7,0,0,0,3.23-1c-2.67-.64-5.38-1.21-8.1-1.72A5.73,5.73,0,0,0,348.88,50.8Z"/><circle class="cls-2" cx="316.18" cy="76.34" r="5.72"/><path class="cls-2" d="M348.88,70.62a5.73,5.73,0,1,0,5.72,5.72A5.73,5.73,0,0,0,348.88,70.62Z"/><circle class="cls-2" cx="381.58" cy="76.34" r="5.72"/><path class="cls-2" d="M414.28,82.07A5.72,5.72,0,0,0,418,80.7c-2.95-2.22-6-4.33-9.06-6.37a5.6,5.6,0,0,0-.37,2A5.73,5.73,0,0,0,414.28,82.07Z"/><path class="cls-2" d="M316.18,101.89a5.73,5.73,0,1,0,5.72,5.72A5.73,5.73,0,0,0,316.18,101.89Z"/><path class="cls-2" d="M348.88,101.89a5.73,5.73,0,1,0,5.72,5.72A5.73,5.73,0,0,0,348.88,101.89Z"/><path class="cls-2" d="M381.58,101.89a5.73,5.73,0,1,0,5.72,5.72A5.72,5.72,0,0,0,381.58,101.89Z"/><path class="cls-2" d="M414.28,101.89a5.73,5.73,0,1,0,5.72,5.72A5.72,5.72,0,0,0,414.28,101.89Z"/><path class="cls-2" d="M441.26,107.61a5.72,5.72,0,0,0,9.18,4.56q-3.57-4.47-7.41-8.69A5.68,5.68,0,0,0,441.26,107.61Z"/><path class="cls-2" d="M316.18,133.16a5.73,5.73,0,1,0,5.72,5.72A5.73,5.73,0,0,0,316.18,133.16Z"/><path class="cls-2" d="M348.88,133.16a5.73,5.73,0,1,0,5.72,5.72A5.73,5.73,0,0,0,348.88,133.16Z"/><path class="cls-2" d="M381.58,133.16a5.73,5.73,0,1,0,5.72,5.72A5.72,5.72,0,0,0,381.58,133.16Z"/><path class="cls-2" d="M414.28,133.16a5.73,5.73,0,1,0,5.72,5.72A5.72,5.72,0,0,0,414.28,133.16Z"/><path class="cls-2" d="M447,133.16a5.73,5.73,0,1,0,5.72,5.72A5.72,5.72,0,0,0,447,133.16Z"/><circle class="cls-2" cx="316.18" cy="170.15" r="5.72"/><path class="cls-2" d="M348.88,164.43a5.72,5.72,0,1,0,5.72,5.72A5.73,5.73,0,0,0,348.88,164.43Z"/><circle class="cls-2" cx="381.58" cy="170.15" r="5.72"/><path class="cls-2" d="M414.28,164.43a5.72,5.72,0,1,0,5.72,5.72A5.72,5.72,0,0,0,414.28,164.43Z"/><circle class="cls-2" cx="446.98" cy="170.15" r="5.72"/><path class="cls-2" d="M474,170.15a5.73,5.73,0,0,0,8.87,4.78q-1.51-5.31-3.35-10.49A5.72,5.72,0,0,0,474,170.15Z"/><path class="cls-2" d="M316.18,195.7a5.72,5.72,0,1,0,5.72,5.72A5.73,5.73,0,0,0,316.18,195.7Z"/><path class="cls-2" d="M348.88,195.7a5.72,5.72,0,1,0,5.72,5.72A5.73,5.73,0,0,0,348.88,195.7Z"/><path class="cls-2" d="M381.58,195.7a5.72,5.72,0,1,0,5.72,5.72A5.72,5.72,0,0,0,381.58,195.7Z"/><path class="cls-2" d="M414.28,195.7a5.72,5.72,0,1,0,5.72,5.72A5.72,5.72,0,0,0,414.28,195.7Z"/><path class="cls-2" d="M447,195.7a5.72,5.72,0,1,0,5.72,5.72A5.72,5.72,0,0,0,447,195.7Z"/><path class="cls-2" d="M479.68,207.14a5.72,5.72,0,1,0-5.72-5.72A5.72,5.72,0,0,0,479.68,207.14Z"/><path class="cls-2" d="M148.87,229.32a5.73,5.73,0,1,0,5.72,5.72A5.72,5.72,0,0,0,148.87,229.32Z"/><path class="cls-2" d="M181.57,229.32a5.73,5.73,0,1,0,5.72,5.72A5.72,5.72,0,0,0,181.57,229.32Z"/><path class="cls-2" d="M214.27,229.32A5.73,5.73,0,1,0,220,235,5.72,5.72,0,0,0,214.27,229.32Z"/><path class="cls-2" d="M247,229.32a5.73,5.73,0,1,0,5.72,5.72A5.72,5.72,0,0,0,247,229.32Z"/><path class="cls-2" d="M279.67,229.32a5.73,5.73,0,1,0,5.72,5.72A5.72,5.72,0,0,0,279.67,229.32Z"/><path class="cls-2" d="M148.87,260.59a5.73,5.73,0,1,0,5.72,5.72A5.72,5.72,0,0,0,148.87,260.59Z"/><path class="cls-2" d="M181.57,260.59a5.73,5.73,0,1,0,5.72,5.72A5.72,5.72,0,0,0,181.57,260.59Z"/><path class="cls-2" d="M214.27,260.59a5.73,5.73,0,1,0,5.72,5.72A5.72,5.72,0,0,0,214.27,260.59Z"/><path class="cls-2" d="M247,260.59a5.73,5.73,0,1,0,5.72,5.72A5.72,5.72,0,0,0,247,260.59Z"/><path class="cls-2" d="M279.67,260.59a5.73,5.73,0,1,0,5.72,5.72A5.72,5.72,0,0,0,279.67,260.59Z"/><path class="cls-2" d="M154.59,297.58a5.72,5.72,0,0,0-9-4.68c1.45,3.47,3,6.88,4.68,10.23A5.71,5.71,0,0,0,154.59,297.58Z"/><path class="cls-2" d="M181.57,291.86a5.73,5.73,0,1,0,5.72,5.72A5.72,5.72,0,0,0,181.57,291.86Z"/><path class="cls-2" d="M214.27,291.86a5.73,5.73,0,1,0,5.72,5.72A5.72,5.72,0,0,0,214.27,291.86Z"/><path class="cls-2" d="M247,291.86a5.73,5.73,0,1,0,5.72,5.72A5.72,5.72,0,0,0,247,291.86Z"/><path class="cls-2" d="M279.67,291.86a5.73,5.73,0,1,0,5.72,5.72A5.72,5.72,0,0,0,279.67,291.86Z"/><path class="cls-2" d="M181.57,323.13a5.73,5.73,0,1,0,5.72,5.72A5.72,5.72,0,0,0,181.57,323.13Z"/><path class="cls-2" d="M214.27,323.13a5.73,5.73,0,1,0,5.72,5.72A5.72,5.72,0,0,0,214.27,323.13Z"/><path class="cls-2" d="M247,323.13a5.73,5.73,0,1,0,5.72,5.72A5.72,5.72,0,0,0,247,323.13Z"/><path class="cls-2" d="M279.67,323.13a5.73,5.73,0,1,0,5.72,5.72A5.72,5.72,0,0,0,279.67,323.13Z"/><path class="cls-2" d="M214.27,354.4a5.73,5.73,0,1,0,5.72,5.72A5.72,5.72,0,0,0,214.27,354.4Z"/><path class="cls-2" d="M247,354.4a5.73,5.73,0,1,0,5.72,5.72A5.72,5.72,0,0,0,247,354.4Z"/><circle class="cls-2" cx="279.67" cy="360.12" r="5.72"/><path class="cls-2" d="M247,385.67a5.72,5.72,0,0,0-5.2,3.35q5.25,2.21,10.67,4.07a6,6,0,0,0,.25-1.7A5.72,5.72,0,0,0,247,385.67Z"/><path class="cls-2" d="M279.67,385.67a5.73,5.73,0,1,0,5.72,5.72A5.72,5.72,0,0,0,279.67,385.67Z"/><path class="cls-2" d="M316.18,229.32A5.73,5.73,0,1,0,321.9,235,5.73,5.73,0,0,0,316.18,229.32Z"/><path class="cls-2" d="M348.88,229.32A5.73,5.73,0,1,0,354.6,235,5.73,5.73,0,0,0,348.88,229.32Z"/><path class="cls-2" d="M381.58,229.32A5.73,5.73,0,1,0,387.3,235,5.72,5.72,0,0,0,381.58,229.32Z"/><path class="cls-2" d="M414.28,229.32A5.73,5.73,0,1,0,420,235,5.72,5.72,0,0,0,414.28,229.32Z"/><path class="cls-2" d="M447,229.32A5.73,5.73,0,1,0,452.7,235,5.72,5.72,0,0,0,447,229.32Z"/><path class="cls-2" d="M479.68,240.77A5.73,5.73,0,1,0,474,235,5.72,5.72,0,0,0,479.68,240.77Z"/><path class="cls-2" d="M316.18,260.59a5.73,5.73,0,1,0,5.72,5.72A5.73,5.73,0,0,0,316.18,260.59Z"/><path class="cls-2" d="M348.88,260.59a5.73,5.73,0,1,0,5.72,5.72A5.73,5.73,0,0,0,348.88,260.59Z"/><path class="cls-2" d="M381.58,260.59a5.73,5.73,0,1,0,5.72,5.72A5.72,5.72,0,0,0,381.58,260.59Z"/><path class="cls-2" d="M414.28,260.59a5.73,5.73,0,1,0,5.72,5.72A5.72,5.72,0,0,0,414.28,260.59Z"/><path class="cls-2" d="M447,260.59a5.73,5.73,0,1,0,5.72,5.72A5.72,5.72,0,0,0,447,260.59Z"/><path class="cls-2" d="M479.68,260.59a5.73,5.73,0,1,0,3.74,10.05c.57-2.11,1.11-4.22,1.6-6.35A5.71,5.71,0,0,0,479.68,260.59Z"/><path class="cls-2" d="M316.18,291.86a5.73,5.73,0,1,0,5.72,5.72A5.73,5.73,0,0,0,316.18,291.86Z"/><path class="cls-2" d="M348.88,291.86a5.73,5.73,0,1,0,5.72,5.72A5.73,5.73,0,0,0,348.88,291.86Z"/><path class="cls-2" d="M381.58,291.86a5.73,5.73,0,1,0,5.72,5.72A5.72,5.72,0,0,0,381.58,291.86Z"/><path class="cls-2" d="M414.28,291.86a5.73,5.73,0,1,0,5.72,5.72A5.72,5.72,0,0,0,414.28,291.86Z"/><path class="cls-2" d="M447,291.86a5.73,5.73,0,1,0,5.72,5.72A5.72,5.72,0,0,0,447,291.86Z"/><path class="cls-2" d="M475.45,293.74A5.71,5.71,0,0,0,474,297.1Q474.73,295.42,475.45,293.74Z"/><path class="cls-2" d="M316.18,323.13a5.73,5.73,0,1,0,5.72,5.72A5.73,5.73,0,0,0,316.18,323.13Z"/><path class="cls-2" d="M348.88,323.13a5.73,5.73,0,1,0,5.72,5.72A5.73,5.73,0,0,0,348.88,323.13Z"/><path class="cls-2" d="M381.58,323.13a5.73,5.73,0,1,0,5.72,5.72A5.72,5.72,0,0,0,381.58,323.13Z"/><path class="cls-2" d="M414.28,323.13a5.73,5.73,0,1,0,5.72,5.72A5.72,5.72,0,0,0,414.28,323.13Z"/><path class="cls-2" d="M447,323.13a5.73,5.73,0,1,0,5.72,5.72A5.72,5.72,0,0,0,447,323.13Z"/><circle class="cls-2" cx="316.18" cy="360.12" r="5.72"/><path class="cls-2" d="M348.88,354.4a5.73,5.73,0,1,0,5.72,5.72A5.73,5.73,0,0,0,348.88,354.4Z"/><circle class="cls-2" cx="381.58" cy="360.12" r="5.72"/><path class="cls-2" d="M414.28,354.4a5.73,5.73,0,1,0,5.72,5.72A5.72,5.72,0,0,0,414.28,354.4Z"/><path class="cls-2" d="M316.18,385.67a5.73,5.73,0,1,0,5.72,5.72A5.73,5.73,0,0,0,316.18,385.67Z"/><path class="cls-2" d="M348.88,385.67a5.73,5.73,0,1,0,5.72,5.72A5.73,5.73,0,0,0,348.88,385.67Z"/><path class="cls-2" d="M375.93,390.52q4.53-1.77,8.95-3.79a5.62,5.62,0,0,0-3.3-1.06A5.72,5.72,0,0,0,375.93,390.52Z"/><path class="cls-1" d="M113.16,143.74a5.72,5.72,0,0,1,.36-9.93V112.68a5.72,5.72,0,0,1,0-10.14V81.41a5.72,5.72,0,0,1,0-10.14V56.16a5.44,5.44,0,0,0-5.44-5.42,5.73,5.73,0,0,0-5.74,5.72v70.75a5.77,5.77,0,0,1-11.54,0V56.46a5.74,5.74,0,0,0-5.74-5.72H85a5.73,5.73,0,0,0-5.74,5.72v3h0V72.49a5.71,5.71,0,0,1,9.94,3.85,5.71,5.71,0,0,1-9.94,3.86v23.56a5.71,5.71,0,0,1,9.94,3.85,5.71,5.71,0,0,1-9.94,3.85v15.75a5.77,5.77,0,0,1-11.53,0V56.46A5.74,5.74,0,0,0,62,50.74H61.9a5.72,5.72,0,0,0-5.73,5.72v18a5.47,5.47,0,0,1,.32,1.86,5.52,5.52,0,0,1-.32,1.87v27.54a5.47,5.47,0,0,1,.32,1.86,5.52,5.52,0,0,1-.32,1.87v17.73a5.77,5.77,0,0,1-11.53,0V56.46a5.74,5.74,0,0,0-5.74-5.72,5.44,5.44,0,0,0-5.45,5.42v76.3c0,17.69,4.5,29.25,11.75,36.39a5.72,5.72,0,1,1,8.72,6.08,25.76,25.76,0,0,1,6.3,5c.32,1.35.64,2.7,1,4.05a25.68,25.68,0,0,1,5.72,14.61c0,.39,0,.77-.07,1.16L54.59,324.6a5.71,5.71,0,0,1-.9,9.17l-2,20.71a5.72,5.72,0,0,1-.89,11.37h-.22L50,371.16A23.66,23.66,0,0,0,54,386.65a5.73,5.73,0,0,1,2.14,2.71,24.09,24.09,0,0,0,3.23,2.93,3.89,3.89,0,0,0,6.89,3.59A23.61,23.61,0,0,0,73.49,397a23.35,23.35,0,0,0,6.67-1,5.72,5.72,0,1,1,9-5l.12-.11c0,.95.09,1.89.13,2.84.53-.49,1-1,1.51-1.52A23.53,23.53,0,0,0,97,375a23,23,0,0,0-.06-3.8L87.1,270.74a5.73,5.73,0,1,1-.93-9.47l-2-20.55a5.34,5.34,0,0,1-.69.05A5.72,5.72,0,0,1,83,229.34l-2.23-22.85a5.72,5.72,0,0,1-.52-9.82,25.64,25.64,0,0,1,13.76-19.32C104.24,172.16,111.49,161.83,113.16,143.74Zm-62.39.87a5.73,5.73,0,1,1,5.72-5.73A5.73,5.73,0,0,1,50.77,144.61Zm32.7,221.24a5.73,5.73,0,1,1,5.72-5.73A5.73,5.73,0,0,1,83.47,365.85Zm0-31.27a5.73,5.73,0,1,1,5.72-5.73A5.73,5.73,0,0,1,83.47,334.58Zm0-42.72a5.73,5.73,0,1,1-5.72,5.72A5.72,5.72,0,0,1,83.47,291.86Zm0-116a5.72,5.72,0,1,1,5.72-5.72A5.72,5.72,0,0,1,83.47,175.87Zm0-31.26a5.73,5.73,0,1,1,5.72-5.73A5.73,5.73,0,0,1,83.47,144.61Z"/><path class="cls-2" d="M56.17,74.48v3.73a5.52,5.52,0,0,0,.32-1.87A5.47,5.47,0,0,0,56.17,74.48Z"/><path class="cls-2" d="M83.47,82.07a5.73,5.73,0,0,0,0-11.45,5.66,5.66,0,0,0-4.22,1.87V80.2A5.7,5.7,0,0,0,83.47,82.07Z"/><path class="cls-2" d="M110.45,76.34a5.71,5.71,0,0,0,3.07,5.07V71.27A5.74,5.74,0,0,0,110.45,76.34Z"/><path class="cls-2" d="M56.17,105.75v3.73a5.52,5.52,0,0,0,.32-1.87A5.47,5.47,0,0,0,56.17,105.75Z"/><path class="cls-2" d="M83.47,113.34a5.73,5.73,0,0,0,0-11.45,5.66,5.66,0,0,0-4.22,1.87v7.7A5.67,5.67,0,0,0,83.47,113.34Z"/><path class="cls-2" d="M110.45,107.61a5.71,5.71,0,0,0,3.07,5.07V102.54A5.74,5.74,0,0,0,110.45,107.61Z"/><path class="cls-2" d="M50.77,133.16a5.73,5.73,0,1,0,5.72,5.72A5.72,5.72,0,0,0,50.77,133.16Z"/><path class="cls-2" d="M83.47,133.16a5.73,5.73,0,1,0,5.72,5.72A5.72,5.72,0,0,0,83.47,133.16Z"/><path class="cls-2" d="M110.45,138.88a5.7,5.7,0,0,0,2.71,4.86q.36-3.92.36-8.32v-1.61A5.74,5.74,0,0,0,110.45,138.88Z"/><path class="cls-2" d="M56.49,170.15a5.72,5.72,0,0,0-11.29-1.3,30.9,30.9,0,0,0,7.72,5.54c.34.17.67.35,1,.54A5.72,5.72,0,0,0,56.49,170.15Z"/><path class="cls-2" d="M83.47,164.43a5.72,5.72,0,1,0,5.72,5.72A5.72,5.72,0,0,0,83.47,164.43Z"/><path class="cls-2" d="M77.75,201.42a5.73,5.73,0,0,0,3.06,5.07l-.66-6.72c0-.38-.05-.75-.07-1.13,0-.66.12-1.32.21-2A5.7,5.7,0,0,0,77.75,201.42Z"/><path class="cls-2" d="M77.75,235a5.72,5.72,0,0,0,5.72,5.73,5.34,5.34,0,0,0,.69-.05L83,229.34A5.72,5.72,0,0,0,77.75,235Z"/><path class="cls-2" d="M77.75,266.31a5.72,5.72,0,0,0,9.35,4.43l-.93-9.47a5.72,5.72,0,0,0-8.42,5Z"/><path class="cls-2" d="M83.47,303.31a5.73,5.73,0,1,0-5.72-5.73A5.73,5.73,0,0,0,83.47,303.31Z"/><path class="cls-2" d="M56.49,328.85a5.72,5.72,0,0,0-1.9-4.25l-.9,9.17A5.7,5.7,0,0,0,56.49,328.85Z"/><path class="cls-2" d="M83.47,323.13a5.73,5.73,0,1,0,5.72,5.72A5.72,5.72,0,0,0,83.47,323.13Z"/><path class="cls-2" d="M56.49,360.12a5.71,5.71,0,0,0-4.83-5.64l-1.11,11.36h.22A5.73,5.73,0,0,0,56.49,360.12Z"/><path class="cls-2" d="M83.47,354.4a5.73,5.73,0,1,0,5.72,5.72A5.72,5.72,0,0,0,83.47,354.4Z"/><path class="cls-2" d="M54,386.65A23.4,23.4,0,0,0,56,389.27l.09.09A5.73,5.73,0,0,0,54,386.65Z"/><path class="cls-2" d="M83.47,385.67a5.72,5.72,0,0,0-3.31,10.38,23.43,23.43,0,0,0,9-5A5.71,5.71,0,0,0,83.47,385.67Z"/><path class="cls-1" d="M567.4,360.79a5.72,5.72,0,1,1-.24-2.43l-2.42-24.66a5.65,5.65,0,0,1-3,.88,5.73,5.73,0,1,1,2-11.07l-2-20.21h0A5.72,5.72,0,0,1,560.66,292l-2-20.84a5.71,5.71,0,0,1-.88-8.92l-4.69-47.94a3.93,3.93,0,0,0,3.93-3.94v-5.68a5.73,5.73,0,0,1,0-6.44V173.37a5.72,5.72,0,0,1,0-6.43V142.1a5.72,5.72,0,0,1,0-6.43V110.83a5.72,5.72,0,0,1,0-6.43V79.56a5.72,5.72,0,0,1,0-6.43V57.64a6.9,6.9,0,0,0-6.9-6.9,7.4,7.4,0,0,0-2.66.5h-.09a7.39,7.39,0,0,0-7.12,5.34l-5.5,19.2a5.44,5.44,0,0,1,0,.57,5.65,5.65,0,0,1-1.2,3.49l-6.41,22.39a5.6,5.6,0,0,1,1.89-.33,5.73,5.73,0,1,1-4.47,9.3l-7.29,25.43c.6.94,1.21,1.87,1.81,2.8l0,.09a84.86,84.86,0,0,0,4.78,59.5,5.72,5.72,0,1,1,5.19,8.13,6,6,0,0,1-.85-.06q1.23,2,2.56,3.95a7.5,7.5,0,0,0,6.16,3.23l-4.63,47.34a5.72,5.72,0,0,1-1,10l-2,20.31a5.72,5.72,0,1,1-1.11,11.36l-2,20.66A5.72,5.72,0,1,1,529,334.58a5.67,5.67,0,0,1-3.77-1.43l-3.72,38a23.6,23.6,0,0,0,4.06,15.68,5.72,5.72,0,1,1,5.17,10,3.88,3.88,0,0,0,5.37-.14,31.94,31.94,0,0,0,20.47-2.76,5.61,5.61,0,0,1-.61-2.55,5.73,5.73,0,0,1,5.73-5.72,5.65,5.65,0,0,1,2.88.79,23.59,23.59,0,0,0,3.81-15.32ZM529,175.87a5.72,5.72,0,1,1,5.72-5.72A5.73,5.73,0,0,1,529,175.87Zm0-31.26a5.73,5.73,0,1,1,5.72-5.73A5.74,5.74,0,0,1,529,144.61Zm0,221.24a5.73,5.73,0,1,1,5.72-5.73A5.74,5.74,0,0,1,529,365.85Z"/><path class="cls-2" d="M534.71,75.77l-1.17,4.06a5.65,5.65,0,0,0,1.2-3.49A5.44,5.44,0,0,0,534.71,75.77Z"/><path class="cls-2" d="M557,79.56V73.13a5.72,5.72,0,0,0,0,6.43Z"/><path class="cls-2" d="M529,113.34a5.73,5.73,0,0,0,0-11.45,5.6,5.6,0,0,0-1.89.33l-2.58,9A5.71,5.71,0,0,0,529,113.34Z"/><path class="cls-2" d="M557,110.83V104.4a5.72,5.72,0,0,0,0,6.43Z"/><path class="cls-2" d="M529,133.16a5.73,5.73,0,1,0,5.72,5.72A5.73,5.73,0,0,0,529,133.16Z"/><path class="cls-2" d="M557,142.1v-6.43a5.72,5.72,0,0,0,0,6.43Z"/><path class="cls-2" d="M529,164.43a5.72,5.72,0,1,0,5.72,5.72A5.73,5.73,0,0,0,529,164.43Z"/><path class="cls-2" d="M557,173.37v-6.43a5.72,5.72,0,0,0,0,6.43Z"/><path class="cls-2" d="M534.74,201.42A5.72,5.72,0,0,0,523.83,199a87.23,87.23,0,0,0,4.34,8.07,6,6,0,0,0,.85.06A5.72,5.72,0,0,0,534.74,201.42Z"/><path class="cls-2" d="M557,204.64V198.2a5.73,5.73,0,0,0,0,6.44Z"/><path class="cls-2" d="M534.74,266.31a5.71,5.71,0,0,0-2.48-4.71l-1,10A5.74,5.74,0,0,0,534.74,266.31Z"/><path class="cls-2" d="M556,266.31a5.72,5.72,0,0,0,2.63,4.81l-.88-8.92A5.73,5.73,0,0,0,556,266.31Z"/><path class="cls-2" d="M534.74,297.58a5.72,5.72,0,0,0-5.45-5.7l-1.11,11.36a5.67,5.67,0,0,0,6.56-5.66Z"/><path class="cls-2" d="M556,297.58a5.74,5.74,0,0,0,5.73,5.73h0L560.66,292A5.73,5.73,0,0,0,556,297.58Z"/><path class="cls-2" d="M534.74,328.85a5.72,5.72,0,0,0-8.58-5l-.91,9.25a5.67,5.67,0,0,0,3.77,1.43A5.73,5.73,0,0,0,534.74,328.85Z"/><path class="cls-2" d="M556,328.85a5.74,5.74,0,0,0,5.73,5.73,5.65,5.65,0,0,0,3-.88l-1-10.19a5.71,5.71,0,0,0-7.76,5.34Z"/><path class="cls-2" d="M529,354.4a5.73,5.73,0,1,0,5.72,5.72A5.73,5.73,0,0,0,529,354.4Z"/><path class="cls-2" d="M561.72,354.4a5.73,5.73,0,1,0,5.68,6.39l-.24-2.43A5.73,5.73,0,0,0,561.72,354.4Z"/><path class="cls-2" d="M534.74,391.39a5.71,5.71,0,0,0-9.15-4.57,23.7,23.7,0,0,0,1.94,2.45,23.06,23.06,0,0,0,2.64,2.5,3.86,3.86,0,0,0,.59,5.07A5.73,5.73,0,0,0,534.74,391.39Z"/><path class="cls-2" d="M556,391.39a5.61,5.61,0,0,0,.61,2.55,23.84,23.84,0,0,0,8-7.48,5.65,5.65,0,0,0-2.88-.79A5.73,5.73,0,0,0,556,391.39Z"/><path class="cls-3" d="M282.24,5c-98.8,0-178.91,80.11-178.91,178.93s80.11,178.9,178.91,178.9,178.92-80.11,178.92-178.9A178.92,178.92,0,0,0,282.24,5Z"/><path class="cls-4" d="M278.3,6.48A180.67,180.67,0,0,0,248.41,9a35,35,0,0,0,8.67,17.67c11.43,13.06,28.2,21,43.47,28.56,16.72,8.3,34.17,16,49,27.51a79.69,79.69,0,0,1,18.78,20.85,50.71,50.71,0,0,1,7.36,20c.89,6.46.63,13,.62,19.48,0,15.3,3.48,29.77,8.65,44.1s11.23,28.69,13.54,44c4.12,27.17-2.31,55.66-18.79,77.63a97.77,97.77,0,0,1-9.58,13.41c-6.56,8.05-12.83,16.45-20,24-1.71,1.81-3.47,3.57-5.25,5.3a178.93,178.93,0,0,0-66.64-345Z"/><path class="cls-3" d="M79.63,10.78A5.73,5.73,0,0,0,73.9,16.5V87.25a5.77,5.77,0,0,1-11.54,0V16.5a5.74,5.74,0,0,0-5.75-5.72h-.07A5.73,5.73,0,0,0,50.8,16.5V87.25a5.77,5.77,0,0,1-11.53,0V16.5a5.74,5.74,0,0,0-5.74-5.72h-.07a5.71,5.71,0,0,0-5.73,5.72V87.25a5.77,5.77,0,0,1-11.54,0V16.5a5.74,5.74,0,0,0-5.74-5.72A5.44,5.44,0,0,0,5,16.2V92.5c0,23.33,7.82,36,19.47,41.93a25.63,25.63,0,0,1,13.9,25.38L21.58,331.2a23.57,23.57,0,1,0,46.91,0L51.7,159.81a25.69,25.69,0,0,1,13.91-25.38c11.66-5.94,19.47-18.6,19.47-41.93V16.2A5.44,5.44,0,0,0,79.63,10.78Z"/><path class="cls-3" d="M526.64,174.3a3.93,3.93,0,0,0,3.94-3.94V17.68a6.91,6.91,0,0,0-6.91-6.9,7.37,7.37,0,0,0-7.11,5.34L492.64,99.55a84.87,84.87,0,0,0,11.68,71.52,7.5,7.5,0,0,0,6.16,3.23L495.12,331.18a23.55,23.55,0,1,0,46.88,0Z"/><path class="cls-5" d="M377.4,129.29a110.59,110.59,0,0,0-15.72-21"/><path class="cls-5" d="M321,81.24a109.74,109.74,0,1,0,65.71,69.07"/><path class="cls-5" d="M282.24,5c-98.8,0-178.91,80.11-178.91,178.93s80.11,178.9,178.91,178.9,178.92-80.11,178.92-178.9A178.92,178.92,0,0,0,282.24,5Z"/><path class="cls-6" d="M79.63,13.74a5.73,5.73,0,0,0-5.73,5.72V90.21a5.77,5.77,0,0,1-11.54,0V19.46a5.74,5.74,0,0,0-5.75-5.72h-.07a5.73,5.73,0,0,0-5.74,5.72V90.21a5.77,5.77,0,0,1-11.53,0V19.46a5.74,5.74,0,0,0-5.74-5.72h-.07a5.71,5.71,0,0,0-5.73,5.72V90.21A5.78,5.78,0,0,1,22,96a5.49,5.49,0,0,1-1.58-.23q1.94,6.9,3.78,13.82,4.57,17.16,8.57,34.48a25.65,25.65,0,0,1,5.64,18.73l-.47,4.81q6.52,31.32,11.27,63A1154,1154,0,0,1,61,353.79c.52-.48,1-1,1.51-1.52a23.56,23.56,0,0,0,6-18.11L51.7,162.77a25.68,25.68,0,0,1,13.91-25.38c11.66-5.94,19.47-18.61,19.47-41.93V19.16A5.44,5.44,0,0,0,79.63,13.74Z"/><path class="cls-6" d="M539.25,331.68,523.89,174.8a3.94,3.94,0,0,0,3.93-3.94V18.17a6.9,6.9,0,0,0-6.9-6.9,7.37,7.37,0,0,0-7.11,5.34l-23,80.05c.65,1,1.31,2,2,3,9.84,15,20.34,29.85,25.78,47.18a101,101,0,0,1,4.33,29.77c0,5.34-.09,10.69.11,16a110.84,110.84,0,0,0,2,15.61c3.69,20.82,4.73,42,5.28,63.08.27,10.46.42,20.92.72,31.38.14,5,.26,10,.62,15a56.09,56.09,0,0,1,.11,10.84c-1.42,11.8-12.37,22-23.17,26-.84.31-1.69.56-2.54.79a23.57,23.57,0,0,0,33.22-23.74Z"/><path class="cls-5" d="M45,357.06A23.59,23.59,0,0,0,68.49,331.2L51.7,159.81a25.69,25.69,0,0,1,13.91-25.38c11.66-5.94,19.47-18.6,19.47-41.93V16.2a5.44,5.44,0,0,0-5.45-5.42A5.73,5.73,0,0,0,73.9,16.5V87.25a5.77,5.77,0,0,1-11.54,0V16.5a5.74,5.74,0,0,0-5.75-5.72h-.07A5.73,5.73,0,0,0,50.8,16.5V87.25a5.77,5.77,0,0,1-11.53,0V16.5a5.74,5.74,0,0,0-5.74-5.72h-.07a5.71,5.71,0,0,0-5.73,5.72V87.25a5.77,5.77,0,0,1-11.54,0V16.5a5.74,5.74,0,0,0-5.74-5.72A5.44,5.44,0,0,0,5,16.2V92.5c0,23.33,7.82,36,19.47,41.93a25.63,25.63,0,0,1,13.9,25.38L21.58,331.2"/><path class="cls-5" d="M518.56,357.06A23.59,23.59,0,0,0,542,331.18L526.64,174.3a3.93,3.93,0,0,0,3.94-3.94V17.68a6.91,6.91,0,0,0-6.91-6.9,7.37,7.37,0,0,0-7.11,5.34L492.64,99.55a84.87,84.87,0,0,0,11.68,71.52,7.5,7.5,0,0,0,6.16,3.23L495.12,331.18"/><path class="cls-7" d="M34.4,350.12A3.89,3.89,0,1,0,38.29,354,3.89,3.89,0,0,0,34.4,350.12Z"/><path class="cls-7" d="M507,350.12a3.89,3.89,0,1,0,3.89,3.88A3.89,3.89,0,0,0,507,350.12Z"/><path class="cls-7" d="M354.21,96.34a3.89,3.89,0,1,0,3.89,3.89A3.89,3.89,0,0,0,354.21,96.34Z"/></svg>