<svg id="圖層_1" data-name="圖層 1" xmlns="http://www.w3.org/2000/svg" viewBox="0 0 253.97 256.95"><defs><style>.cls-1{fill:#29228c;}.cls-2{fill:#f36f89;}.cls-3,.cls-4{fill:none;stroke:#e45175;stroke-linecap:round;stroke-linejoin:round;}.cls-3{stroke-width:5px;}.cls-4{stroke-width:7px;}.cls-5{fill:#e45175;}</style></defs><title>20190226 Landing Page(Cut)</title><path class="cls-1" d="M236.93,118.81,141,18.57a48.82,48.82,0,0,0-69-1.52L17.57,69.12a48.82,48.82,0,0,0-1.52,69l31.88,33.32L47.61,180l-.86,23.13a9.68,9.68,0,0,0,9.6,10l23.15.16,8.55.06,23.91,25a48.82,48.82,0,0,0,69,1.52l54.42-52.07A48.82,48.82,0,0,0,236.93,118.81Z"/><path class="cls-2" d="M99,156.73a4.84,4.84,0,0,1-1.36-3.17c-.2-4.48-.45-8.75-.67-12.52v0c-.63-11.05-1.18-20.59-.27-28.46,1-8.81,3.88-15.19,9-20.07a26.16,26.16,0,0,1,17.48-7.55A22.49,22.49,0,0,1,140,92a21,21,0,0,1,5.8,12.63,27,27,0,0,1-.33,7.67,26.7,26.7,0,0,1,7.68,0,21,21,0,0,1,12.35,6.35,22.48,22.48,0,0,1,6.3,17.12,26.13,26.13,0,0,1-8.3,17.13c-5.11,4.88-11.61,7.45-20.45,8.09-7.91.56-17.42-.41-28.42-1.53-3.76-.39-8-.82-12.5-1.22A4.86,4.86,0,0,1,99,156.73Z"/><path class="cls-3" d="M27.14,60l-9.57,9.16a48.82,48.82,0,0,0-1.52,69"/><path class="cls-4" d="M16.05,138.14l31.88,33.32L47.61,180l-.86,23.13a9.68,9.68,0,0,0,9.6,10l23.15.16,8.55.06,23.91,25a48.82,48.82,0,0,0,69,1.52l54.42-52.07a48.82,48.82,0,0,0,1.53-69L141,18.57a48.82,48.82,0,0,0-69-1.52"/><circle class="cls-5" cx="60.75" cy="28.74" r="4.06"/></svg>